<?xml version="1.0" encoding="utf-8"?>
<!-- Generator: Adobe Illustrator 27.5.0, SVG Export Plug-In . SVG Version: 6.00 Build 0)  -->
<svg version="1.1" xmlns="http://www.w3.org/2000/svg" xmlns:xlink="http://www.w3.org/1999/xlink" x="0px" y="0px"
	 viewBox="0 0 750 500" style="enable-background:new 0 0 750 500;" xml:space="preserve">
<g id="BACKGROUND">
	<rect style="fill:#724E31;" width="750" height="500"/>
</g>
<g id="OBJECTS">
	<g>
		<defs>
			<rect id="SVGID_1_" width="750" height="500"/>
		</defs>
		<clipPath id="SVGID_00000057827073512450057290000011984606955852649112_">
			<use xlink:href="#SVGID_1_"  style="overflow:visible;"/>
		</clipPath>
		<g style="clip-path:url(#SVGID_00000057827073512450057290000011984606955852649112_);">
			<path style="fill:none;stroke:#E5CCB7;stroke-width:2;stroke-miterlimit:10;" d="M520.482-15.229
				c-18.137-3.315-39.285-2.308-54.893,8.529c-23.844,16.555-17.46,49.846-25.613,74.131
				c-14.276,42.524-54.526,48.782-93.385,55.138c-44.549,7.286-28.717,56.781-25.974,87.313
				c6.631,73.809-81.698,95.593-135.938,69.359c-35.79-17.31-60.861-48.957-96.238-66.695
				c-25.637-12.855-55.247-17.642-83.629-13.52c-7.134,1.036-15.49,3.805-17.217,10.804"/>
			<path style="fill:none;stroke:#E5CCB7;stroke-width:2;stroke-miterlimit:10;" d="M678.438-21.693
				c-13.186,25.804-2.808,56.613,3.037,84.996c3.167,15.379,4.919,31.05,5.226,46.749c0.221,11.271-0.393,22.932-5.325,33.068
				c-9.151,18.808-31.424,28.117-52.335,28.569c-20.911,0.452-41.216-6.207-61.479-11.392c-20.263-5.184-41.895-8.904-61.867-2.689
				c-31.047,9.662-50.452,41.063-59.139,72.397c-5.478,19.758-7.034,43.191,6.51,58.583c13.757,15.634,38.637,16.733,57.819,8.628
				c19.182-8.106,34.204-23.417,49.379-37.678c15.175-14.261,31.936-28.297,52.284-32.729c7.479-1.629,15.439-1.857,22.657,0.689
				c16.186,5.709,24.82,24.03,25.64,41.173c1.44,30.085-15.957,58.596-39.033,77.953c-23.076,19.357-51.415,31.118-79.282,42.549
				c-16.943,6.95-33.912,13.896-50.255,22.158c-14.544,7.353-28.918,16.04-38.932,28.897
				c-16.661,21.392-18.602,50.627-17.051,77.698"/>
			<path style="fill:none;stroke:#E5CCB7;stroke-width:2;stroke-miterlimit:10;" d="M257.751,348.052
				c-16.41-1.023-32.954-4.025-48.847-6.203c-36.883-5.054-76.468-4.012-103.434,25.173
				c-30.847,33.386-23.144,84.714,20.477,101.496c33.222,12.781,70.986,5.791,103.064-7.087
				c29.001-11.643,57.476-24.589,85.373-38.67c20.994-10.597,52.219-21.117,61.511-45c8.882-22.829-7.675-47.452-32.14-47.906
				c-15.501-0.287-27.885,9.019-41.914,13.914C287.923,348.622,272.303,348.959,257.751,348.052z"/>
			<g>
				<path style="fill:none;stroke:#E5CCB7;stroke-width:0.75;stroke-miterlimit:10;" d="M528.359,173.251
					c-17.875,2.235-34.233,10.278-46.275,24.566c-12.609,14.962-22.101,36.971-22.485,56.635
					c-0.394,20.204,14.815,34.469,35.158,31.183c14.571-2.353,26.299-11.945,35.92-22.502c11.574-12.7,23.65-24.05,37.938-33.629
					c10.622-7.122,28.773-20.052,21.188-35.054c-8.796-17.397-31.886-21.556-49.488-21.836
					C536.277,172.55,532.281,172.76,528.359,173.251z"/>
				<path style="fill:none;stroke:#E5CCB7;stroke-width:0.75;stroke-miterlimit:10;" d="M527.809,182.903
					c-14.313,1.789-27.411,8.229-37.053,19.671c-10.096,11.98-17.696,29.603-18.003,45.347c-0.316,16.177,11.862,27.6,28.151,24.969
					c11.667-1.884,21.058-9.565,28.761-18.018c9.267-10.169,18.937-19.257,30.377-26.927c8.505-5.702,23.039-16.056,16.965-28.068
					c-7.043-13.93-25.531-17.26-39.625-17.484C534.149,182.342,530.95,182.511,527.809,182.903z"/>
				<path style="fill:none;stroke:#E5CCB7;stroke-width:0.75;stroke-miterlimit:10;" d="M527.259,192.556
					c-10.75,1.344-20.588,6.181-27.83,14.775c-7.583,8.998-13.292,22.234-13.522,34.061c-0.237,12.151,8.91,20.73,21.144,18.754
					c8.763-1.415,15.816-7.184,21.602-13.533c6.961-7.638,14.223-14.464,22.816-20.225c6.388-4.283,17.305-12.059,12.743-21.082
					c-5.29-10.463-19.176-12.964-29.763-13.132C532.021,192.134,529.618,192.261,527.259,192.556z"/>
				<path style="fill:none;stroke:#E5CCB7;stroke-width:0.75;stroke-miterlimit:10;" d="M526.709,202.209
					c-7.188,0.899-13.766,4.133-18.608,9.878c-5.07,6.016-8.887,14.866-9.041,22.773c-0.159,8.124,5.957,13.86,14.137,12.539
					c5.859-0.946,10.575-4.803,14.444-9.048c4.654-5.107,9.51-9.671,15.255-13.522c4.271-2.864,11.57-8.063,8.52-14.096
					c-3.537-6.995-12.822-8.668-19.9-8.78C529.893,201.927,528.286,202.012,526.709,202.209z"/>
				<path style="fill:none;stroke:#E5CCB7;stroke-width:0.75;stroke-miterlimit:10;" d="M526.159,211.861
					c-3.625,0.453-6.943,2.085-9.385,4.982c-2.557,3.034-4.482,7.498-4.56,11.486c-0.08,4.098,3.005,6.991,7.13,6.324
					c2.955-0.477,5.334-2.423,7.285-4.564c2.347-2.576,4.796-4.878,7.694-6.82c2.154-1.444,5.836-4.067,4.297-7.109
					c-1.784-3.528-6.467-4.372-10.037-4.429C527.764,211.719,526.954,211.762,526.159,211.861z"/>
			</g>
			<g>
				<path style="fill:none;stroke:#E5CCB7;stroke-width:0.75;stroke-miterlimit:10;" d="M693.995,137.99
					c-6.186,18.943-19.49,32.74-42.92,39.256c-11.942,3.321-28.736,8.419-25.783,24.203c2.911,15.558,21.518,20.8,32.53,29.246
					c16.39,12.571,22.282,33.887,37.65,47.367c38.812,34.044,78.125-10.696,96.387-44.093
					c23.188-42.407,33.05-92.395,29.076-140.453c-2.182-26.382-9.498-52.086-22.817-75.068
					c-10.723-18.501-28.23-33.419-49.133-38.818c-15.099-3.9-38.315-4.358-51.057,5.957C684.86-3.835,686.86,15.788,688.33,30.602
					C691.796,65.527,705.329,103.285,693.995,137.99z"/>
				<path style="fill:none;stroke:#E5CCB7;stroke-width:0.7102;stroke-miterlimit:10;" d="M750.693,6.239
					c-12.89-3.287-32.526-3.535-43.377,5.272c-8.398,6.814-9.577,17.981-9.162,28.468c0.133,3.367,0.43,6.663,0.702,9.724
					c2.649,29.673,13.889,61.772,4.362,91.317c-5.113,15.861-15.972,27.575-34.999,33.437c-0.327,0.102-0.659,0.195-0.989,0.301
					c-10.301,3.309-24.757,8.428-22.575,22.361c0.134,0.855,0.315,1.678,0.545,2.472c3.512,12.062,17.952,17.296,27.218,24.476
					c13.844,10.727,19.086,28.639,32.221,40.007c33.012,28.644,66.565-8.598,82.259-36.946
					c20.107-36.189,28.376-79.328,25.304-120.482c-1.754-23.499-7.779-46.514-19.508-67.056
					C783.551,23.708,768.617,10.799,750.693,6.239z"/>
				<path style="fill:none;stroke:#E5CCB7;stroke-width:0.6704;stroke-miterlimit:10;" d="M752.402,32.85
					c-10.681-2.673-26.737-2.712-35.697,4.588c-6.904,5.62-8.003,14.764-7.784,23.374c0.071,2.764,0.274,5.472,0.462,7.993
					c1.833,24.421,10.779,50.862,3.059,75.245c-4.144,13.1-12.921,22.816-28.257,27.954c-0.265,0.089-0.536,0.165-0.8,0.265
					c-8.687,3.315-20.782,8.441-19.367,20.519c0.088,0.751,0.211,1.478,0.379,2.182c2.56,10.67,14.42,16.031,22.618,22.468
					c11.304,8.874,15.891,23.39,26.793,32.646c27.213,23.244,55.004-6.5,68.132-29.798c17.026-29.97,23.726-66.266,21.532-100.51
					c-1.321-20.618-5.987-40.983-16.198-59.043C779.761,47.441,767.348,36.569,752.402,32.85z"/>
				<path style="fill:none;stroke:#E5CCB7;stroke-width:0.6307;stroke-miterlimit:10;" d="M754.111,59.46
					c-8.473-2.059-20.948-1.889-28.017,3.903c-5.41,4.426-6.429,11.547-6.405,18.279c0.008,2.161,0.119,4.282,0.222,6.263
					c1.016,19.17,7.668,39.951,1.756,59.174c-3.176,10.338-9.863,18.091-21.515,22.472c-0.203,0.076-0.413,0.137-0.611,0.23
					c-7.111,3.359-16.817,8.457-16.158,18.677c0.042,0.647,0.108,1.278,0.212,1.892c1.607,9.277,10.888,14.764,18.018,20.461
					c8.773,7.009,12.715,18.118,21.365,25.286c21.463,17.785,43.387-4.435,54.005-22.651c13.871-23.795,19.111-53.209,17.761-80.538
					c-0.877-17.74-4.238-35.426-12.889-51.031C775.935,71.195,766.078,62.339,754.111,59.46z"/>
				<path style="fill:none;stroke:#E5CCB7;stroke-width:0.5909;stroke-miterlimit:10;" d="M755.819,86.071
					c-6.264-1.445-15.159-1.066-20.337,3.218c-3.916,3.232-4.855,8.33-5.027,13.185c-0.055,1.558-0.036,3.091-0.018,4.532
					c0.2,13.918,4.558,29.041,0.453,43.103c-2.207,7.576-6.807,13.374-14.772,16.989c-0.14,0.064-0.29,0.112-0.422,0.195
					c-5.579,3.482-12.866,8.478-12.95,16.835c-0.005,0.544,0.003,1.078,0.046,1.602c0.638,7.886,7.361,13.491,13.418,18.453
					c6.256,5.125,9.523,12.863,15.937,17.925c15.673,12.371,31.816-2.344,39.878-15.503c10.775-17.588,14.554-40.159,13.989-60.567
					c-0.412-14.867-2.499-29.862-9.579-43.019C772.096,94.957,764.809,88.109,755.819,86.071z"/>
				<path style="fill:none;stroke:#E5CCB7;stroke-width:0.5511;stroke-miterlimit:10;" d="M757.528,112.682
					c-4.057-0.82-9.37-0.243-12.657,2.534c-2.422,2.038-3.281,5.113-3.649,8.09c-0.118,0.955-0.191,1.9-0.257,2.802
					c-0.617,8.667,1.448,18.13-0.851,27.032c-1.238,4.814-3.754,8.682-8.03,11.507c-0.078,0.051-0.164,0.094-0.232,0.159
					c-4.024,3.802-8.942,8.5-9.742,14.993c-0.054,0.441-0.099,0.877-0.121,1.312c-0.298,6.493,3.846,12.2,8.818,16.445
					c3.762,3.212,6.326,7.612,10.509,10.565c9.87,6.968,20.261-0.246,25.751-8.356c7.698-11.373,10.096-27.116,10.218-40.595
					c0.108-11.999-0.787-24.283-6.27-35.006C768.237,118.73,763.536,113.896,757.528,112.682z"/>
				<path style="fill:none;stroke:#E5CCB7;stroke-width:0.5113;stroke-miterlimit:10;" d="M748.05,162.193
					c-0.014,0.041-0.029,0.083-0.043,0.124c-1.751,4.958-5.57,9.066-6.821,14.173c-1.25,5.1,0.419,10.813,4.218,14.438
					c3.98,3.798,12.437,6.621,16.705,1.996c4.702-5.096,5.83-14.06,6.446-20.624c0.855-9.117,0.816-18.652-2.961-26.994
					c-1.26-2.783-3.325-5.656-6.358-6.014c-3.074-0.362-5.836,2.09-7.247,4.845C749.169,149.644,750.069,156.347,748.05,162.193z"/>
			</g>
			<g>
				<path style="fill:none;stroke:#E5CCB7;stroke-width:0.75;stroke-miterlimit:10;" d="M469.319,455.037
					c21.978-26.014,61.162-39.761,91.529-53.092c33.752-14.817,65.243-31.844,93.32-55.856
					c34.835-29.792,89.171-60.402,116.759-5.723c20.233,40.101,24.963,91.355,6.768,133.436
					c-29.237,67.618-117.244,88.512-183.837,85.401c-34.332-1.604-70.18-8.59-100.62-25.184
					c-16.718-9.113-34.081-26.09-35.899-46.038C456.238,475.899,461.364,464.453,469.319,455.037z"/>
				<path style="fill:none;stroke:#E5CCB7;stroke-width:0.75;stroke-miterlimit:10;" d="M656.831,361.063
					c29.364-27.471,79.079-52.109,101.304-3.939c15.945,34.559,16.906,75.905,0.814,110.651
					c-25.604,55.285-97.122,72.933-152.083,73.27c-22.809,0.14-47.106-1.665-69.304-10.183c-6.598-2.532-12.928-5.744-18.761-9.339
					c-13.452-8.29-27.102-22.386-27.942-38.885c-0.536-9.97,3.934-19.409,10.773-27.035c12.193-13.596,30.156-22.661,48.166-30.75
					c10.519-4.725,21.064-9.092,30.541-13.526c12.314-5.737,24.132-11.97,35.29-18.916
					C630.248,383.317,643.883,373.176,656.831,361.063z"/>
				<path style="fill:none;stroke:#E5CCB7;stroke-width:0.75;stroke-miterlimit:10;" d="M659.494,376.037
					c23.879-25.237,69.021-43.861,85.849-2.155c11.694,28.982,8.865,60.452-5.139,87.866
					c-21.942,42.95-77.128,57.621-120.328,61.138c-19.237,1.566-40.388,2.339-59.691-5.131c-5.733-2.219-11.122-5.321-15.818-8.728
					c-10.193-7.396-20.079-18.682-19.985-31.732c0.056-7.857,3.855-15.284,9.566-21.125c10.532-10.771,25.715-17.372,40.699-23.923
					c8.744-3.824,17.433-7.585,25.187-11.537c10.017-5.06,19.464-10.697,28.111-16.959
					C639.27,395.557,649.501,386.599,659.494,376.037z"/>
				<path style="fill:none;stroke:#E5CCB7;stroke-width:0.75;stroke-miterlimit:10;" d="M662.157,391.011
					c18.335-23.144,59.039-35.682,70.394-0.371c7.51,23.355,0.857,44.998-11.093,65.08c-18.221,30.62-57.28,42.813-88.574,49.007
					c-15.771,3.121-33.67,6.344-50.079-0.079c-4.868-1.905-9.314-4.856-12.874-8.118c-6.966-6.382-13.084-14.973-12.028-24.58
					c0.631-5.741,3.798-11.148,8.36-15.214c8.904-7.936,21.273-12.082,33.231-17.097c6.969-2.924,13.792-6.096,19.832-9.547
					c7.708-4.405,14.797-9.424,20.932-15.002C648.292,407.797,655.075,399.951,662.157,391.011z"/>
				<path style="fill:none;stroke:#E5CCB7;stroke-width:0.75;stroke-miterlimit:10;" d="M664.82,405.985
					c12.574-21.279,49.247-27.595,54.939,1.413c3.466,17.664-7.07,29.563-17.047,42.295c-14.363,18.33-37.442,28.969-56.82,36.875
					c-12.357,5.042-26.953,10.348-40.466,4.974c-4.003-1.592-7.547-4.307-9.931-7.508c-3.855-5.177-6.107-11.257-4.071-17.427
					c1.195-3.62,3.781-6.982,7.153-9.304c7.344-5.056,16.832-6.793,25.764-10.271c5.193-2.024,10.161-4.587,14.478-7.558
					c5.411-3.724,10.129-8.151,13.753-13.046C657.315,420.037,660.553,413.206,664.82,405.985z"/>
				<path style="fill:none;stroke:#E5CCB7;stroke-width:0.75;stroke-miterlimit:10;" d="M667.483,420.959
					c-1.67,5.428-1.146,11.319-2.596,16.809c-2.032,7.69-8.142,14.173-15.698,16.657c-5.905,1.941-12.38,1.536-18.296,3.445
					c-5.916,1.908-11.549,7.693-9.833,13.668c0.935,3.257,3.85,5.62,6.988,6.898c10.619,4.326,22.695-1.969,30.854-10.026
					c8.407-8.303,14.88-18.383,25.065-24.743c8.237-5.144,22.725-7.549,23-19.51C707.491,401.428,673.539,401.268,667.483,420.959z"
					/>
			</g>
			<path style="fill:none;stroke:#E5CCB7;stroke-width:0.75;stroke-miterlimit:10;" d="M672.397,288.484
				c-0.243,2.898,0.524,5.856,0.198,8.811c-0.556,5.042-3.864,9.091-5.221,13.878c-1.364,4.812,2.33,8.154,6.793,5.821
				c4.583-2.396,8.62-5.648,13.244-7.95c1.979-0.985,3.983-2.023,5.531-3.602c6.219-6.344-1.429-14.209-6.516-18.146
				c-4.032-3.121-11.928-9.186-13.835-0.158C672.497,287.585,672.435,288.034,672.397,288.484z"/>
			<g>
				<path style="fill:none;stroke:#E5CCB7;stroke-width:0.75;stroke-miterlimit:10;" d="M456.332,75.834
					c-1.049,7.723-2.53,15.349-5.229,22.66c-5.647,15.298-6.277,34.849,10.453,43.265c19.304,9.709,42.446,1.166,62.837,1.212
					c23.627,0.053,47.285,7.027,70.782,10.965c20.308,3.403,61.909,12.55,71.91-20.285c14.092-46.266-3.372-137.307-49.315-148.984
					c-28.049-7.129-58.068,8.681-86.479,6.849c-21.249-1.37-43.782,2.477-57.715,20.074
					C458.775,30.288,459.369,53.471,456.332,75.834z"/>
				<path style="fill:none;stroke:#E5CCB7;stroke-width:0.75;stroke-miterlimit:10;" d="M612.389-2.894
					c-23.918-6.243-50.413,6.493-75.608,4.765c-18.656-1.268-38.338,1.955-50.77,16.72c-13.343,15.847-13.438,35.704-15.783,55.516
					c-0.781,6.6-1.99,13.094-4.142,19.316c-4.502,13.022-4.725,29.522,9.539,36.658c11.909,5.931,25.478,4.019,38.68,2.434
					c5.345-0.645,10.659-1.22,15.802-1.188c20.37,0.107,40.951,6.055,61.373,9.403c18.023,2.923,53.683,10.495,62.626-17.307
					C666.798,83.961,651.62,7.362,612.389-2.894z"/>
				<path style="fill:none;stroke:#E5CCB7;stroke-width:0.75;stroke-miterlimit:10;" d="M607.005,9.545
					c-19.786-5.356-42.757,4.305-64.736,2.68c-16.063-1.165-32.905,1.432-43.826,13.366c-11.894,12.997-12.675,29.519-14.319,46.788
					c-0.521,5.474-1.45,10.838-3.055,15.972c-3.357,10.746-3.173,24.196,8.626,30.05c10.098,4.961,21.577,3.457,32.749,2.189
					c4.49-0.516,8.99-0.96,13.377-0.908c17.113,0.162,34.617,5.082,51.964,7.84c15.737,2.443,45.463,8.439,53.341-14.329
					C652.425,80.536,639.526,18.381,607.005,9.545z"/>
				<path style="fill:none;stroke:#E5CCB7;stroke-width:0.75;stroke-miterlimit:10;" d="M601.622,21.985
					c-15.655-4.47-35.102,2.117-53.865,0.595c-13.47-1.063-27.489,0.903-36.881,10.011c-10.462,10.145-11.93,23.321-12.856,38.059
					c-0.273,4.344-0.909,8.583-1.969,12.628c-2.212,8.47-1.636,18.901,7.712,23.443c8.274,4.019,17.676,2.894,26.818,1.944
					c3.635-0.387,7.32-0.699,10.952-0.629c13.857,0.217,28.277,4.152,42.554,6.278c13.446,2.002,37.254,6.382,44.056-11.35
					C638.064,77.108,627.431,29.399,601.622,21.985z"/>
				<path style="fill:none;stroke:#E5CCB7;stroke-width:0.75;stroke-miterlimit:10;" d="M596.239,34.424
					c-11.523-3.584-27.446-0.071-42.994-1.489c-10.877-0.96-22.103,0.361-29.937,6.657c-9.061,7.282-11.221,17.105-11.393,29.331
					c-0.045,3.21-0.369,6.327-0.882,9.284c-1.067,6.194-0.086,13.579,6.799,16.835c6.46,3.056,13.775,2.332,20.888,1.7
					c2.78-0.257,5.651-0.431,8.527-0.35c10.599,0.301,21.943,3.182,33.145,4.715c11.16,1.527,29.066,4.325,34.772-8.372
					C623.729,73.676,615.336,40.418,596.239,34.424z"/>
				<path style="fill:none;stroke:#E5CCB7;stroke-width:0.75;stroke-miterlimit:10;" d="M590.856,46.864
					c-7.392-2.697-19.791-2.26-32.123-3.574c-8.284-0.858-16.768-0.226-22.992,3.303c-7.715,4.373-10.614,10.87-9.929,20.603
					c0.146,2.072,0.171,4.072,0.205,5.94c0.078,3.918,1.469,8.248,5.885,10.228c4.65,2.085,9.875,1.782,14.957,1.455
					c1.926-0.124,3.981-0.172,6.102-0.071c7.342,0.352,15.611,2.2,23.735,3.153c8.877,1.041,20.929,2.278,25.487-5.394
					C609.462,70.254,603.242,51.437,590.856,46.864z"/>
				<path style="fill:none;stroke:#E5CCB7;stroke-width:0.75;stroke-miterlimit:10;" d="M539.707,65.468
					c0.82,2.941,3.408,5.136,6.263,6.217c2.855,1.081,5.973,1.207,9.026,1.21c8.464,0.008,27.604,4.952,34.206-0.616
					c6.234-5.258,1.945-9.823-3.729-12.975C577.317,54.773,534.023,45.075,539.707,65.468z"/>
			</g>
			<path style="fill:none;stroke:#E5CCB7;stroke-width:0.75;stroke-miterlimit:10;" d="M220.105,513.689
				c0.047-16.499,11.914-30.686,25.151-40.535c17.502-13.022,37.32-20.4,57.544-27.851c40.002-14.739,76.625-32.345,98.789-70.291
				c9.57-16.384,18.124-34.029,36.381-42.284c18.622-8.42,39.232-10.236,58.547-16.46c22.14-7.135,40.792-19.095,58.344-33.977
				c17.202-14.586,46.316-54.314,72.781-41.052c19.561,9.803,18.324,34.375,12.836,52.291c-8.33,27.195-29.593,48.095-54.241,61.221
				c-29.133,15.513-59.53,29.411-90.235,41.496c-24.085,9.479-48.672,21.118-62.642,44.052
				c-15.635,25.667-15.727,57.526-14.439,86.581"/>
			<g>
				<path style="fill:none;stroke:#E5CCB7;stroke-width:0.75;stroke-miterlimit:10;" d="M576.705,278.038
					c-21.069,21.083-47.448,36.817-76.011,45.336c-10.347,3.086-21.061,5.276-30.734,10.075
					c-9.673,4.798-18.45,12.804-21.007,23.295c-2.556,10.491,3.121,23.23,13.615,25.776c5.208,1.263,10.658-0.008,15.864-1.279
					c25.362-6.19,50.838-12.463,74.889-22.613c16.221-6.846,34.334-16.26,49.199-28.731c14.865-12.471,26.483-27.999,29.715-47.072
					c0.459-2.711,0.729-5.452,0.809-8.2c0.102-3.495-0.436-6.656-1.46-10.005c-2.23-7.297-7.061-15.67-15.265-16.98
					c-6.537-1.044-12.735,2.926-17.556,6.876C590.368,261.395,584.322,270.416,576.705,278.038z"/>
				<path style="fill:none;stroke:#E5CCB7;stroke-width:0.75;stroke-miterlimit:10;" d="M606.817,263.584
					c-5.072-0.809-9.896,2.181-13.689,5.187c-6.564,5.224-11.369,12.12-17.339,18.001c-11.191,11.019-24.159,20.326-38.054,27.255
					c-6.667,3.349-13.567,6.195-20.638,8.476c-7.928,2.557-16.131,4.443-23.576,8.262c-4.646,2.384-9.04,5.696-12.216,9.799
					c-1.913,2.471-3.383,5.23-4.188,8.259c-0.661,2.484-0.731,5.133-0.278,7.679c1.019,5.706,4.683,10.888,10.222,12.404
					c2.328,0.637,4.754,0.621,7.178,0.302c1.755-0.23,3.506-0.613,5.227-1.005c6.024-1.374,12.07-2.864,18.071-4.444
					c13.875-3.652,27.629-7.79,40.807-13.425c0.416-0.178,0.834-0.358,1.253-0.54c12.454-5.424,26.055-12.749,37.247-22.349
					c11.436-9.744,20.348-21.976,22.689-36.748c0.331-2.107,0.514-4.234,0.546-6.362c0.041-2.705-0.41-5.152-1.239-7.732
					C617.039,270.988,613.229,264.606,606.817,263.584z"/>
				<path style="fill:none;stroke:#E5CCB7;stroke-width:0.75;stroke-miterlimit:10;" d="M597.313,279.53
					c-3.606-0.574-7.062,1.429-9.821,3.497c-4.741,3.554-8.296,8.339-12.619,12.478c-8.121,7.767-17.383,14.523-26.993,19.628
					c-4.675,2.484-9.465,4.689-14.379,6.498c-5.509,2.029-11.201,3.609-16.419,6.449c-3.257,1.775-6.358,4.156-8.667,7.046
					c-1.387,1.738-2.487,3.663-3.134,5.774c-0.534,1.734-0.669,3.583-0.44,5.376c0.518,4.016,2.893,7.746,6.713,9.013
					c1.635,0.542,3.384,0.63,5.142,0.47c1.274-0.115,2.549-0.347,3.804-0.598c4.391-0.879,8.816-1.983,13.183-3.154
					c10.094-2.706,20.118-5.786,29.682-9.97c0.302-0.132,0.606-0.266,0.91-0.402c9.102-4.064,18.856-9.544,26.89-16.647
					c7.976-7.051,14.213-15.953,15.663-26.424c0.203-1.503,0.298-3.016,0.282-4.524c-0.019-1.914-0.383-3.649-1.017-5.459
					C604.723,284.654,601.935,280.264,597.313,279.53z"/>
				<path style="fill:none;stroke:#E5CCB7;stroke-width:0.75;stroke-miterlimit:10;" d="M587.81,295.475
					c-2.14-0.339-4.223,0.682-5.954,1.808c-2.91,1.894-5.222,4.558-7.899,6.956c-5.052,4.516-10.595,8.749-15.934,12.001
					c-2.679,1.632-5.364,3.182-8.119,4.519c-3.09,1.5-6.272,2.775-9.261,4.637c-1.868,1.165-3.676,2.616-5.117,4.294
					c-0.862,1.006-1.59,2.095-2.081,3.289c-0.407,0.983-0.606,2.032-0.602,3.074c0.018,2.325,1.106,4.617,3.204,5.623
					c0.943,0.452,2.013,0.639,3.106,0.638c0.793,0.001,1.591-0.081,2.381-0.19c2.759-0.384,5.562-1.102,8.296-1.865
					c6.314-1.76,12.606-3.782,18.558-6.515c0.189-0.087,0.378-0.174,0.567-0.263c5.75-2.704,11.677-6.312,16.534-10.944
					c4.539-4.329,8.099-9.929,8.638-16.1c0.078-0.899,0.082-1.798,0.018-2.685c-0.08-1.124-0.357-2.145-0.796-3.186
					C592.408,298.32,590.64,295.923,587.81,295.475z"/>
				<path style="fill:none;stroke:#E5CCB7;stroke-width:0.75;stroke-miterlimit:10;" d="M568.167,317.348
					c-1.877,2.287-3.234,5.043-5.532,6.906c-0.62,0.502-1.309,0.941-1.792,1.576c-0.483,0.635-0.716,1.548-0.305,2.232
					c0.234,0.39,0.643,0.648,1.069,0.807c1.396,0.52,2.949,0.099,4.367-0.357c2.614-0.84,5.259-1.841,7.658-3.184
					s4.55-3.03,6.177-5.242c2.031-2.761,2.958-7.978-1.503-8.664C574.671,310.861,570.226,314.839,568.167,317.348z"/>
			</g>
			<g>
				<path style="fill:none;stroke:#E5CCB7;stroke-width:0.75;stroke-miterlimit:10;" d="M250.519,482.594
					c24.927-21.902,61.227-27.382,91.528-38.967c6.477-2.476,12.865-5.255,18.791-8.854c11.818-7.177,21.893-16.721,32.315-25.709
					c9.755-8.413,20.711-20.045,34.561-20.426c6.926-0.19,14.31,4.044,14.996,11.505c1.306,14.21-16.059,29.686-22.352,41.332
					c-8.038,14.877-8.584,31.895-10.416,48.313c-1.944,17.413-6.583,33.635-20.525,45.307
					c-30.019,25.132-83.328,14.983-117.358,4.848c-13.797-4.109-35.383-10.595-38.083-27.433
					C232.043,500.457,242.237,489.871,250.519,482.594z"/>
				<path style="fill:none;stroke:#E5CCB7;stroke-width:0.75;stroke-miterlimit:10;" d="M358.021,445.404
					c9.529-5.696,17.777-13.372,26.292-20.531c4.571-3.833,9.421-8.434,14.82-11.681c4.22-2.537,8.658-4.254,13.349-4.267
					c5.441-0.013,10.999,3.501,11.327,9.74c0.611,11.619-13.706,23.76-19.124,33.047c-6.677,11.445-7.492,24.668-9.337,37.422
					c-0.664,4.617-1.559,9.134-2.883,13.452c-2.546,8.32-6.683,15.898-13.851,21.991c-6.948,5.914-15.426,9.512-24.639,11.45
					c-16.938,3.591-36.403,1.589-53.211-2.143c-5.019-1.12-9.795-2.397-14.177-3.711c-10.965-3.291-27.68-8.632-29.83-21.893
					c-1.574-9.667,6.35-18.261,12.997-24.187c7.423-6.608,16.177-11.339,25.442-15.201c15.534-6.476,32.533-10.531,47.755-16.406
					C348.135,450.486,353.252,448.256,358.021,445.404z"/>
				<path style="fill:none;stroke:#E5CCB7;stroke-width:0.75;stroke-miterlimit:10;" d="M355.203,456.036
					c7.24-4.215,13.661-10.023,20.268-15.353c3.595-2.884,7.368-6.257,11.527-8.551c3.408-1.88,6.844-3.056,10.249-2.919
					c3.956,0.164,7.696,2.955,7.659,7.975c-0.068,9.023-11.334,17.834-15.896,24.762c-5.282,8.021-6.4,17.44-8.258,26.53
					c-0.665,3.286-1.477,6.512-2.567,9.613c-2.092,5.968-5.22,11.465-10.374,15.967c-5.025,4.402-11.082,7.238-17.666,8.952
					c-12.17,3.167-26.235,2.495-38.622,0.02c-3.668-0.743-7.179-1.649-10.409-2.63c-8.134-2.473-19.977-6.669-21.578-16.352
					c-1.216-7.28,4.44-13.881,9.451-18.456c5.528-5.029,12.13-8.599,19.071-11.548c11.654-4.953,24.324-8.203,35.796-12.7
					C347.746,459.822,351.593,458.14,355.203,456.036z"/>
				<path style="fill:none;stroke:#E5CCB7;stroke-width:0.75;stroke-miterlimit:10;" d="M352.385,466.667
					c4.95-2.734,9.538-6.684,14.244-10.175c2.616-1.941,5.325-4.065,8.234-5.421c2.604-1.213,5.03-1.859,7.149-1.571
					c2.471,0.341,4.411,2.405,3.99,6.211c-0.71,6.421-8.912,11.918-12.669,16.477c-3.812,4.626-5.308,10.212-7.179,15.639
					c-0.665,1.955-1.394,3.891-2.251,5.774c-1.639,3.616-3.756,7.033-6.897,9.942c-3.103,2.889-6.736,4.976-10.692,6.454
					c-7.399,2.764-16.07,3.422-24.033,2.184c-2.319-0.361-4.563-0.901-6.641-1.548c-5.302-1.655-12.273-4.705-13.326-10.811
					c-0.857-4.893,2.529-9.502,5.904-12.725c3.634-3.45,8.083-5.859,12.701-7.895c7.774-3.431,16.116-5.875,23.836-8.993
					C347.358,469.157,349.933,468.024,352.385,466.667z"/>
				<path style="fill:none;stroke:#E5CCB7;stroke-width:0.75;stroke-miterlimit:10;" d="M333.783,484.353
					c-2.294,1.124-4.591,2.371-6.33,4.242c-1.739,1.871-2.857,4.488-2.358,6.994c0.692,3.477,4.402,5.776,7.947,5.737
					c3.544-0.039,6.83-1.953,9.444-4.347c2.614-2.395,4.715-5.287,7.14-7.873c2.389-2.548,5.094-4.798,8.035-6.682
					c3.133-2.007,8.169-4.356,9.441-8.192c1.579-4.761-0.41-5.328-4.372-4.223c-4.431,1.236-8.932,5.297-13.161,7.288
					C344.353,479.754,338.962,481.816,333.783,484.353z"/>
			</g>
			<path style="fill:none;stroke:#E5CCB7;stroke-width:0.75;stroke-miterlimit:10;" d="M414.071,369.95
				c-1.078,2.001-2.055,4.145-2.1,6.417c-0.045,2.272,1.058,4.703,3.144,5.604c2.411,1.041,5.121-0.189,7.645-0.916
				c6.456-1.861,13.7-0.202,19.049,3.864c5.349,4.066,8.823,10.356,9.977,16.975c0.245,1.406,0.511,3.02,1.727,3.766
				c0.58,0.356,1.287,0.441,1.967,0.432c2.982-0.037,5.683-1.674,8.164-3.328c1.679-1.12,3.516-2.596,3.511-4.614
				c-0.003-1.567-1.189-2.919-2.562-3.675c-1.373-0.756-2.94-1.059-4.434-1.532c-6.688-2.121-11.698-7.567-16.378-12.794
				c-1.584-1.769-3.192-3.574-4.177-5.735c-1.514-3.322-1.406-7.157-0.818-10.761c0.602-3.684,3.52-10.739,1.469-14.279
				c-1.82-3.141-6.022-0.739-8.221,0.672C424.531,354.863,418.279,362.144,414.071,369.95z"/>
			<g>
				<path style="fill:none;stroke:#E5CCB7;stroke-width:0.75;stroke-miterlimit:10;" d="M423.907,136.432
					c-9.01-4.194-19.27-6.318-29.013-6.948c-21.638-1.4-53.022,1.522-61.91,25.091c-7.494,19.872,3.292,44.481,3.92,64.989
					c0.462,15.081-3.893,29.863-11.847,42.63c-4.079,6.547-9.045,12.461-14.55,17.851c-5.375,5.263-15.363,11.694-15.064,20.251
					c0.366,10.466,13.794,14.767,22.315,14.878c7.336,0.095,14.578-1.614,21.908-1.999c12.652-0.663,21.153,7.506,31.52,13.425
					c12.997,7.421,30.143,7.467,43.99,2.231c14.596-5.52,18.993-18.233,17.56-33.031c-1.962-20.262-4.861-38.012-0.817-58.319
					c2.753-13.824,6.905-27.684,12.122-40.783c4.601-11.553,8.164-22.099,4.074-34.566
					C444.06,149.773,434.917,141.557,423.907,136.432z"/>
				<path style="fill:none;stroke:#E5CCB7;stroke-width:0.75;stroke-miterlimit:10;" d="M342.063,168.698
					c-6.115,16.632,2.489,37.104,2.781,54.184c0.209,12.253-3.318,24.255-9.795,34.646c-3.322,5.329-7.352,10.151-11.808,14.556
					c-4.359,4.315-12.402,9.566-12.202,16.521c0.248,8.496,10.967,11.975,17.778,12.289c5.87,0.271,11.775-0.771,17.823-0.884
					c10.406-0.232,17.632,6.509,26.36,11.147c11.058,5.876,25.27,5.128,36.626,0.43c11.702-4.841,15.327-15.135,14.193-27.256
					c-1.551-16.617-3.844-31.218-0.74-47.88c1.243-6.671,2.789-13.372,4.827-19.939c1.5-4.829,3.259-9.609,5.201-14.281
					c3.978-9.626,7.217-18.459,4.107-28.798c-3.067-10.284-10.474-17.219-20.05-21.593c-7.619-3.502-16.187-5.146-24.29-5.473
					C374.839,145.662,349.296,149.09,342.063,168.698z"/>
				<path style="fill:none;stroke:#E5CCB7;stroke-width:0.75;stroke-miterlimit:10;" d="M351.142,182.82
					c-4.737,13.392,1.692,29.723,1.641,43.38c-0.035,9.423-2.743,18.647-7.743,26.662c-2.564,4.111-5.659,7.842-9.067,11.261
					c-3.343,3.367-9.441,7.438-9.34,12.791c0.131,6.527,8.147,9.184,13.241,9.7c4.413,0.447,8.971,0.093,13.739,0.23
					c8.158,0.234,14.117,5.509,21.199,8.868c9.127,4.329,20.384,2.802,29.262-1.37c8.805-4.138,11.66-12.037,10.826-21.481
					c-1.139-12.971-2.838-24.428-0.664-37.442c0.902-5.401,1.954-10.847,3.587-16.166c1.192-3.872,2.692-7.716,4.348-11.493
					c3.373-7.692,6.248-14.812,4.141-23.03c-2.103-8.204-7.76-13.843-15.893-17.486c-6.235-2.793-13.104-3.974-19.567-3.997
					C376.423,163.24,356.721,167.176,351.142,182.82z"/>
				<path style="fill:none;stroke:#E5CCB7;stroke-width:0.75;stroke-miterlimit:10;" d="M360.221,196.943
					c-3.381,10.145,0.906,22.332,0.501,32.575c-0.261,6.589-2.168,13.039-5.691,18.679c-1.807,2.893-3.966,5.532-6.325,7.966
					c-2.327,2.419-6.48,5.31-6.478,9.062c0.013,4.557,5.346,6.402,8.704,7.112c2.98,0.629,6.166,0.944,9.654,1.344
					c5.907,0.678,10.612,4.5,16.038,6.589c7.207,2.774,15.475,0.51,21.898-3.171c5.907-3.385,7.993-8.939,7.459-15.706
					c-0.727-9.326-1.849-17.645-0.587-27.003c0.557-4.133,1.118-8.322,2.347-12.392c0.884-2.914,2.119-5.826,3.495-8.704
					c2.755-5.762,5.293-11.172,4.175-17.262c-1.125-6.13-5.038-10.482-11.735-13.38c-4.845-2.097-10.022-2.815-14.844-2.522
					C378.005,180.788,364.118,185.251,360.221,196.943z"/>
				<path style="fill:none;stroke:#E5CCB7;stroke-width:0.75;stroke-miterlimit:10;" d="M369.301,211.066
					c-2.004,6.906,0.162,14.923-0.639,21.77c-0.438,3.748-1.593,7.431-3.638,10.695c-1.049,1.675-2.278,3.218-3.583,4.671
					c-1.317,1.466-3.524,3.182-3.616,5.332c-0.111,2.587,2.587,3.688,4.167,4.523c1.615,0.854,3.357,1.787,5.569,2.458
					c3.652,1.108,7.124,3.467,10.878,4.31c5.31,1.192,10.548-1.681,14.534-4.971c3.033-2.504,4.326-5.841,4.092-9.931
					c-0.316-5.681-0.906-10.874-0.51-16.564c0.199-2.871,0.282-5.797,1.107-8.619c0.576-1.957,1.542-3.937,2.641-5.915
					c2.13-3.835,4.346-7.536,4.209-11.494c-0.141-4.061-2.313-7.128-7.578-9.274c-3.452-1.407-6.941-1.643-10.121-1.046
					C379.585,198.367,371.543,203.337,369.301,211.066z"/>
				<path style="fill:none;stroke:#E5CCB7;stroke-width:0.75;stroke-miterlimit:10;" d="M378.38,225.189
					c-0.601,3.673-0.207,7.592-1.779,10.966c-1.198,2.572-3.511,4.787-3.552,7.624c-0.049,3.461,3.78,6.126,7.202,5.604
					c3.422-0.522,6.094-3.482,7.17-6.771c1.077-3.29,0.821-6.861,0.292-10.281c-0.249-1.609-0.554-3.271-0.134-4.845
					c1.265-4.729,11.963-10.688,2.61-14.02C383.317,211.015,379.256,219.829,378.38,225.189z"/>
			</g>
			<g>
				<path style="fill:none;stroke:#E5CCB7;stroke-width:0.75;stroke-miterlimit:10;" d="M58.926,63.765
					c3.418,24.096,14.729,46.627,35.181,60.595c25.782,17.609,47.396,24.231,58.855,55.659c11.535,31.639,14.99,64.961,47.64,82.932
					c30.453,16.762,77.79,11.637,94.272-22.352c15.665-32.304-0.12-68.674,0.379-102.377c0.23-15.539,5.478-31.192,19.732-39.194
					c20.766-11.658,45.945-1.741,67.62-9.873c22.008-8.257,39.273-28.972,48.818-49.802c9.806-21.399,6.81-44.517-16.061-55.197
					c-38.111-17.796-82.495-21.142-123.94-22.987c-44.468-1.979-88.251,2.519-131.916,10.659
					c-24.409,4.55-51.096,6.731-72.326,20.843C65.725,6.933,56.2,33.534,58.342,58.636C58.486,60.325,58.681,62.037,58.926,63.765z"
					/>
				<path style="fill:none;stroke:#E5CCB7;stroke-width:0.75;stroke-miterlimit:10;" d="M101.054-2.517
					C81.683,10.537,73.139,34.629,75.018,57.404c0.126,1.532,0.298,3.086,0.515,4.654c3.021,21.858,13.15,42.261,31.189,55.168
					c22.827,16.333,41.457,23.382,52.088,52.083c10.852,29.151,15.355,58.166,44.682,73.41
					c27.382,14.234,69.545,9.471,84.455-21.134c14.182-29.105,0.458-61.777,1.293-91.975c0.373-13.917,5.223-27.915,18.096-35.089
					c4.884-2.722,10.036-4.14,15.333-4.875c15.03-2.086,31.213,1.325,45.658-4.13c19.79-7.466,35.27-26.11,43.803-44.882
					c8.758-19.245,5.978-39.842-14.341-49.742c-34.576-16.848-75.694-20.582-113.872-22.098
					c-39.849-1.583-79.08,2.398-118.164,9.802C143.901-17.262,120.04-15.205,101.054-2.517z"/>
				<path style="fill:none;stroke:#E5CCB7;stroke-width:0.75;stroke-miterlimit:10;" d="M114.929,2.293
					C97.591,14.067,90.078,35.724,91.694,56.172c0.109,1.376,0.257,2.771,0.446,4.178c2.623,19.621,11.572,37.9,27.198,49.742
					c19.875,15.063,35.518,22.533,45.321,48.508c10.169,26.662,15.702,51.36,41.723,63.888c24.301,11.699,61.3,7.306,74.638-19.916
					c12.698-25.905,1.036-54.879,2.208-81.574c0.517-12.294,4.967-24.637,16.459-30.984c4.357-2.407,8.952-3.67,13.677-4.331
					c13.4-1.875,27.823,1.09,40.684-3.807c17.571-6.675,31.267-23.247,38.787-39.962c7.711-17.091,5.147-35.183-12.62-44.288
					c-31.056-15.914-68.891-20.023-103.805-21.21c-35.228-1.198-69.909,2.276-104.411,8.945
					C152.705-10.904,131.622-9.042,114.929,2.293z"/>
				<path style="fill:none;stroke:#E5CCB7;stroke-width:0.75;stroke-miterlimit:10;" d="M128.804,7.103
					c-15.279,10.533-21.787,29.716-20.434,47.837c0.091,1.22,0.217,2.455,0.376,3.702c2.227,17.384,9.997,33.546,23.207,44.316
					c16.929,13.802,29.515,21.709,38.555,44.932c9.42,24.2,16.021,44.542,38.765,54.365c21.201,9.157,53.055,5.141,64.821-18.697
					c11.215-22.706,1.614-47.982,3.122-71.173c0.66-10.671,4.711-21.36,14.822-26.879c3.831-2.093,7.868-3.199,12.02-3.787
					c11.77-1.665,24.434,0.856,35.711-3.483c15.353-5.884,27.264-20.385,33.772-35.042c6.663-14.937,4.319-30.547-10.9-38.833
					c-27.552-15.002-62.085-19.468-93.738-20.321c-30.605-0.826-60.738,2.155-90.659,8.089
					C161.509-4.546,143.229-2.84,128.804,7.103z"/>
				<path style="fill:none;stroke:#E5CCB7;stroke-width:0.75;stroke-miterlimit:10;" d="M142.679,11.914
					c-13.22,9.293-18.723,26.001-17.632,41.795c0.073,1.064,0.176,2.14,0.307,3.227c1.829,15.146,8.424,29.204,19.215,38.889
					c13.99,12.556,23.561,20.867,31.788,41.356c8.721,21.719,16.294,37.708,35.806,44.843c18.069,6.607,44.81,2.976,55.004-17.479
					c9.731-19.506,2.241-41.08,4.037-60.771c0.825-9.046,4.456-18.083,13.186-22.774c3.304-1.778,6.785-2.729,10.364-3.243
					c10.141-1.454,21.044,0.621,30.737-3.159c13.134-5.093,23.261-17.523,28.757-30.121c5.616-12.784,3.496-25.943-9.179-33.379
					c-24.07-14.121-55.277-18.917-83.67-19.433c-25.981-0.472-51.567,2.034-76.907,7.232
					C170.313,1.812,154.839,3.366,142.679,11.914z"/>
				<path style="fill:none;stroke:#E5CCB7;stroke-width:0.75;stroke-miterlimit:10;" d="M156.553,16.724
					c-11.161,8.058-15.659,22.286-14.831,35.753c0.056,0.907,0.135,1.825,0.238,2.751c1.432,12.909,6.852,24.882,15.224,33.463
					c11.057,11.333,17.612,20.023,25.021,37.781c8.026,19.237,16.485,30.856,32.848,35.321c14.88,4.06,36.565,0.811,45.187-16.261
					c8.248-16.307,2.829-34.179,4.952-50.37c0.973-7.422,4.2-14.805,11.549-18.669c2.778-1.463,5.701-2.259,8.708-2.699
					c8.511-1.243,17.654,0.387,25.764-2.836c10.916-4.302,19.258-14.661,23.741-25.201c4.568-10.63,2.683-21.386-7.459-27.924
					C306.883,4.544,279.031-0.543,253.892-0.712c-21.354-0.144-42.395,1.912-63.154,6.376
					C179.117,8.17,166.451,9.578,156.553,16.724z"/>
				<path style="fill:none;stroke:#E5CCB7;stroke-width:0.75;stroke-miterlimit:10;" d="M170.428,21.534
					c-9.1,6.829-12.595,18.571-12.029,29.711c0.038,0.751,0.094,1.51,0.169,2.276c1.035,10.672,5.275,20.594,11.232,28.036
					c8.127,10.152,11.671,19.177,18.255,34.205c7.339,16.752,16.523,24.004,29.89,25.798c11.582,1.555,28.32-1.355,35.369-15.043
					c6.764-13.107,3.415-27.276,5.866-39.969c1.12-5.796,3.945-11.528,9.912-14.563c2.251-1.148,4.617-1.789,7.052-2.155
					c6.882-1.033,14.264,0.152,20.79-2.512c8.698-3.511,15.232-11.809,18.726-20.281c3.499-8.485,1.893-16.899-5.739-22.47
					c-17.177-12.539-41.647-17.85-63.536-17.657c-16.723,0.148-33.224,1.791-49.402,5.519
					C187.92,14.528,178.069,15.801,170.428,21.534z"/>
				<path style="fill:none;stroke:#E5CCB7;stroke-width:0.75;stroke-miterlimit:10;" d="M184.303,26.345
					c-7.035,5.613-9.531,14.856-9.228,23.669c0.02,0.595,0.053,1.195,0.099,1.8c0.638,8.434,3.67,16.365,7.241,22.61
					c5.174,9.047,5.741,18.327,11.488,30.629c6.663,14.264,16.639,19.155,26.931,16.276c8.101,0.705,20.075-3.52,25.552-13.825
					c5.281-9.908,3.995-20.371,6.781-29.567c1.263-4.17,3.689-8.251,8.276-10.458c1.725-0.833,3.534-1.318,5.396-1.61
					c5.252-0.822,10.868-0.095,15.817-2.188c6.472-2.738,11.228-8.946,13.711-15.361c2.45-6.331,1.15-12.52-4.018-17.015
					c-13.732-11.944-34.823-17.358-53.469-16.768c-12.09,0.382-24.053,1.67-35.649,4.663
					C196.724,20.886,189.697,22.041,184.303,26.345z"/>
				<path style="fill:none;stroke:#E5CCB7;stroke-width:0.75;stroke-miterlimit:10;" d="M198.178,31.155
					c-4.95,4.432-6.467,11.141-6.426,17.627c0.003,0.439,0.013,0.88,0.03,1.324c0.241,6.197,1.963,12.217,3.249,17.183
					c2.085,8.053-0.172,17.469,4.721,27.054c6.007,11.766,16.875,12.611,23.973,6.754c4.908-1.589,11.83-5.685,15.735-12.607
					c3.797-6.708,4.558-13.465,7.695-19.166c1.4-2.543,3.434-4.973,6.639-6.353c1.198-0.518,2.45-0.848,3.74-1.066
					c3.623-0.611,7.479-0.328,10.843-1.865c4.255-1.944,7.228-6.082,8.695-10.441c1.406-4.175,0.517-8.3-2.298-11.561
					c-10.088-11.684-27.995-16.963-43.401-15.88c-7.457,0.524-14.882,1.548-21.897,3.806
					C205.528,27.244,201.348,28.316,198.178,31.155z"/>
				<path style="fill:none;stroke:#E5CCB7;stroke-width:0.75;stroke-miterlimit:10;" d="M207.646,60.156
					c-1.436,6.985-6.059,16.593-2.045,23.478c5.389,9.244,17.111,6.068,21.014-2.769c4.418-10.003,9.86-20.562,21.614-22.924
					c1.993-0.401,4.094-0.551,5.87-1.541c3.826-2.133,4.707-7.548,3.103-11.626c-4.824-12.254-21.245-17.129-33.334-14.991
					c-4.476,0.791-8.991,2.621-11.816,6.183C206.61,42.829,209.283,52.199,207.646,60.156z"/>
			</g>
			<g>
				<path style="fill:none;stroke:#E5CCB7;stroke-width:0.75;stroke-miterlimit:10;" d="M49.896,112.852
					c15.819,7.186,31.155,15.437,45.792,24.774c23.41,14.933,45.171,34.704,52.677,62.464c0.946,3.499,1.567,7.15,1.113,10.745
					c-3.444,27.31-39.475,2.751-50.247-4.4c-9.999-6.638-20.893-12.122-32.351-15.789c-17.973-5.751-37.403-7.137-56.094-8.777
					c-12.738-1.118-24.61-2.326-34.74-11.07c-17.83-15.391-23.156-54.266-7.29-73.112c11.597-13.773,35.075-2.664,48.537,2.071
					C28.337,103.642,39.226,108.005,49.896,112.852z"/>
				<path style="fill:none;stroke:#E5CCB7;stroke-width:0.75;stroke-miterlimit:10;" d="M-15.788,107.486
					c9.59-11.151,28.904-2.252,40.241,1.634c9.144,3.161,18.176,6.73,27.014,10.703c13.194,5.919,25.962,12.713,37.906,20.431
					c19.763,12.769,36.049,29.338,41.14,51.297c0.643,2.774,1.001,5.649,0.575,8.482c-3.261,21.705-31.992,2.011-40.821-3.789
					c-8.123-5.357-16.964-9.788-26.257-12.761c-14.578-4.663-30.327-5.794-45.481-7.182c-5.349-0.49-10.53-1.009-15.42-2.357
					c-4.877-1.344-9.426-3.584-13.533-7.285C-24.582,153.903-28.753,122.678-15.788,107.486z"/>
				<path style="fill:none;stroke:#E5CCB7;stroke-width:0.75;stroke-miterlimit:10;" d="M-0.332,117.283
					c7.543-8.565,22.742-1.868,31.945,1.198c7.252,2.416,14.42,5.214,21.426,8.313c10.57,4.653,20.766,9.995,30.02,16.088
					c16.115,10.61,26.922,23.966,29.603,40.129c0.34,2.049,0.435,4.145,0.037,6.219c-3.087,16.081-24.519,1.286-31.396-3.179
					c-6.257-4.063-13.035-7.453-20.164-9.733c-11.183-3.576-23.251-4.456-34.869-5.588c-4.32-0.421-8.52-0.876-12.467-2.032
					c-3.937-1.153-7.54-3.141-10.699-6.181C-7.389,152.42-10.451,128.773-0.332,117.283z"/>
				<path style="fill:none;stroke:#E5CCB7;stroke-width:0.75;stroke-miterlimit:10;" d="M15.123,127.081
					c5.521-5.961,16.574-1.465,23.649,0.761c5.355,1.686,10.664,3.697,15.838,5.923c7.946,3.386,15.565,7.286,22.135,11.745
					c12.463,8.459,17.788,18.574,18.066,28.962c0.035,1.321-0.129,2.63-0.501,3.956c-2.921,10.407-17.04,0.553-21.971-2.569
					c-4.385-2.776-9.107-5.119-14.07-6.705c-7.788-2.488-16.175-3.126-24.256-3.993c-3.292-0.353-6.51-0.744-9.514-1.707
					c-2.997-0.961-5.652-2.688-7.865-5.077C9.785,150.984,7.884,134.896,15.123,127.081z"/>
				<path style="fill:none;stroke:#E5CCB7;stroke-width:0.75;stroke-miterlimit:10;" d="M30.578,136.879
					c3.508-3.353,10.402-1.055,15.352,0.325c3.455,0.963,6.904,2.19,10.25,3.532c5.316,2.133,10.352,4.597,14.249,7.401
					c8.799,6.333,8.676,13.089,6.529,17.795c-0.266,0.583-0.539,1.174-1.039,1.692c-1.503,5.063-9.558-0.182-12.546-1.958
					c-2.51-1.492-5.178-2.784-7.976-3.676c-4.393-1.4-9.097-1.818-13.644-2.399c-2.263-0.289-4.501-0.611-6.561-1.382
					c-2.056-0.77-3.765-2.205-5.031-3.973C26.889,149.667,26.236,141.028,30.578,136.879z"/>
				<path style="fill:none;stroke:#E5CCB7;stroke-width:0.75;stroke-miterlimit:10;" d="M46.033,146.677
					c-1.36,0.577-2.475,1.947-2.343,3.418c0.112,1.252,1.081,2.29,2.197,2.869c1.116,0.579,2.379,0.789,3.608,1.057
					c2.777,0.607,5.481,1.549,8.034,2.801c5.129,2.515,12.164-1.223,6.585-6.056C60.843,147.932,49.979,145.005,46.033,146.677z"/>
			</g>
			<path style="fill:none;stroke:#E5CCB7;stroke-width:0.75;stroke-miterlimit:10;" d="M-17.497,66.731
				c14.659,12.897,33.59,20.853,53.061,22.301c2.676,0.199,5.555,0.229,7.806-1.232c4.108-2.665,4.043-8.583,3.586-13.458
				c-1.399-14.916-2.067-30.164,1.598-44.69C52.218,15.126,60.772,1.241,73.981-5.826"/>
			<path style="fill:none;stroke:#E5CCB7;stroke-width:0.75;stroke-miterlimit:10;" d="M-6.511,59.593
				c7.234,5.87,15.904,9.956,25.035,11.799c2.519,0.508,5.179,0.841,7.621,0.041c5.175-1.695,7.49-7.679,8.391-13.049
				c1.911-11.391,0.507-23.118,2.123-34.555c1.616-11.436,7.376-23.49,18.214-27.485"/>
			<path style="fill:none;stroke:#E5CCB7;stroke-width:0.75;stroke-miterlimit:10;" d="M-7.523,42.517
				c4.24,2.475,8.606,4.974,13.444,5.81c4.838,0.835,10.321-0.318,13.435-4.115c2.395-2.921,3.037-6.869,3.412-10.628
				c0.727-7.274,0.799-14.686,2.823-21.71c2.024-7.025,6.424-13.832,13.21-16.55"/>
			<path style="fill:none;stroke:#E5CCB7;stroke-width:0.75;stroke-miterlimit:10;" d="M-8.119,22.716
				c-0.511,0.576,0.422,1.316,1.164,1.518c5.69,1.548,12.561,2.828,16.828-1.243c3.467-3.308,3.575-8.682,5.002-13.256
				C16.816,3.51,21.692-1.728,27.762-4.111"/>
			<g>
				<path style="fill:none;stroke:#E5CCB7;stroke-width:0.75;stroke-miterlimit:10;" d="M27.402,211.852
					c35.644,4.457,66.372,24.738,95.36,45.096c14.34,10.071,29.044,19.719,44.66,27.714c11.165,5.716,22.986,9.981,34.789,14.159
					c5.99,2.12,12.222,3.671,17.686,7.069c11.736,7.299,9.649,19.264-3.798,21.679c-20.926,3.759-42.556-4.291-63.757-1.047
					c-21.929,3.355-42.87,12.645-65.262,13.395c-12.248,0.41-23.335-4.971-33.884-10.561c-10.544-5.588-19.962-9.886-32.014-11.662
					c-22.271-3.282-45.355-4.433-50.759-30.638c-3.488-16.912-0.26-36.241,6.943-51.814
					C-13.356,215.183,6.717,209.266,27.402,211.852z"/>
				<path style="fill:none;stroke:#E5CCB7;stroke-width:0.75;stroke-miterlimit:10;" d="M-11.745,243.117
					c7.461-16.363,23.879-21.342,41.106-19.219c26.484,3.285,49.955,17.123,71.989,32.084c2.228,1.514,4.442,3.04,6.643,4.567
					c11.873,8.23,23.995,16.159,36.743,22.805c6.235,3.261,12.685,5.983,19.15,8.551c3.033,1.205,6.065,2.361,9.076,3.517
					c4.816,1.848,9.74,3.253,14.031,6.047c9.231,6.009,7.352,15.593-3.707,17.484c-17.021,2.968-34.595-3.53-51.82-1.008
					c-17.819,2.609-34.842,9.95-53.022,10.451c-9.938,0.276-18.946-4.082-27.525-8.609c-8.568-4.522-16.234-8.014-26.009-9.488
					c-18.066-2.726-36.492-3.813-41.362-24.806C-19.654,271.693-17.546,255.891-11.745,243.117z"/>
				<path style="fill:none;stroke:#E5CCB7;stroke-width:0.75;stroke-miterlimit:10;" d="M-0.854,250.993
					c5.644-12.666,18.405-16.708,32.176-15.048c20.602,2.523,39.233,13.105,56.662,24.675c1.759,1.169,3.505,2.349,5.24,3.531
					c9.407,6.388,18.946,12.6,28.825,17.896c4.861,2.627,9.847,4.85,14.771,7.005c2.325,1.018,4.629,1.992,6.892,2.971
					c3.643,1.577,7.257,2.836,10.375,5.024c6.724,4.719,5.048,11.887-3.615,13.289c-13.124,2.124-26.633-2.769-39.883-0.968
					c-13.709,1.862-26.813,7.254-40.782,7.508c-7.628,0.143-14.558-3.193-21.165-6.656c-6.591-3.457-12.506-6.142-20.003-7.314
					c-13.861-2.169-27.657-3.203-31.965-18.974C-6.25,273.225-5.253,260.967-0.854,250.993z"/>
				<path style="fill:none;stroke:#E5CCB7;stroke-width:0.75;stroke-miterlimit:10;" d="M10.036,258.868
					c3.792-8.984,12.932-12.074,23.245-10.878c14.721,1.76,28.511,9.086,41.336,17.267c1.289,0.825,2.568,1.658,3.838,2.494
					c6.939,4.547,13.91,9.017,20.908,12.987c3.494,1.982,7.01,3.719,10.392,5.459c1.618,0.832,3.194,1.625,4.709,2.426
					c2.472,1.308,4.77,2.415,6.72,4.001c4.21,3.424,2.749,8.201-3.524,9.094c-9.22,1.313-18.672-2.008-27.946-0.928
					c-9.599,1.115-18.785,4.559-28.543,4.564c-5.318,0.01-10.169-2.304-14.805-4.704c-4.615-2.392-8.778-4.27-13.997-5.14
					c-9.656-1.613-18.889-2.609-22.568-13.142C7.13,274.723,7.013,266.032,10.036,258.868z"/>
				<path style="fill:none;stroke:#E5CCB7;stroke-width:0.75;stroke-miterlimit:10;" d="M20.927,266.744
					c1.97-5.288,7.461-7.461,14.315-6.707c8.842,0.972,17.788,5.068,26.01,9.858c0.819,0.48,1.63,0.968,2.435,1.458
					c4.467,2.716,8.863,5.457,12.991,8.078c2.121,1.346,4.173,2.599,6.013,3.913c0.911,0.65,1.761,1.265,2.525,1.881
					c1.305,1.052,2.271,1.983,3.064,2.979c1.677,2.107,0.453,4.521-3.433,4.899c-5.312,0.516-10.71-1.247-16.008-0.888
					c-5.49,0.368-10.756,1.864-16.303,1.62c-3.008-0.124-5.781-1.415-8.446-2.751c-2.638-1.326-5.05-2.398-7.991-2.967
					c-5.452-1.057-10.332-2.024-13.172-7.31C20.424,276.146,19.301,271.108,20.927,266.744z"/>
				<path style="fill:none;stroke:#E5CCB7;stroke-width:0.75;stroke-miterlimit:10;" d="M37.202,272.083
					c-3.399-0.27-5.194,0.96-5.384,2.536c-0.191,1.577,1.222,3.502,4.236,4.624c2.663,0.991,5.23,2.105,7.846,3.07
					c2.616,0.965,5.279,1.78,8.134,2.173c3.042,0.419,4.737-1.031,3.592-3.996c-0.996-2.574-4.123-4.558-7.74-5.958
					C44.268,273.133,40.16,272.319,37.202,272.083z"/>
			</g>
			<path style="fill:none;stroke:#E5CCB7;stroke-width:0.75;stroke-miterlimit:10;" d="M258.414,297.199
				c-9.162,4.778-10.84,16.729-14.41,25.568c-1.37,3.391-2.226,7.352-0.36,10.733c3.649,6.608,13.062,6.579,19.574,6.162
				c7.122-0.456,14.408-0.124,21.332-2.169c3.984-1.177,9.601-4.851,9.898-9.497c0.361-5.672-6.176-6.298-10.007-8.121
				c-9.06-4.312-6.704-15.393-13.024-21.658C267.812,294.641,262.618,295.006,258.414,297.199z"/>
			<path style="fill:none;stroke:#E5CCB7;stroke-width:0.75;stroke-miterlimit:10;" d="M267.786,317.471
				c-0.215-0.861-0.74-1.585-1.623-1.946c-3.332-1.363-5.087,3.28-5.426,5.75c-0.186,1.351,0.035,2.928,1.153,3.709
				c1.246,0.87,3.073,0.295,4.073-0.848C267.385,322.512,268.32,319.616,267.786,317.471z"/>
			<g>
				<path style="fill:none;stroke:#E5CCB7;stroke-width:0.75;stroke-miterlimit:10;" d="M226.415,357.928
					c-25.202-2.652-49.998-5.406-74.939,2.265c-16.506,5.076-32.919,15.177-39.454,32.207c-4.466,11.64-3.813,25.822,0.547,37.396
					c7.247,19.239,25.699,26.586,45.128,25.801c60.476-2.443,119.315-26.633,168.895-60.461c3.633-2.479,7.222-5.023,10.765-7.63
					c6.625-4.874,13.789-10.239,16.403-18.428c1.546-4.845,1.085-10.514-2.053-14.516c-3.136-3.999-8.451-5.788-13.533-5.837
					c-12.308-0.118-23.23,7.026-35.074,9.188c-22.007,4.018-44.572,3.168-66.733,1.03
					C233.042,358.623,229.725,358.276,226.415,357.928z"/>
				<path style="fill:none;stroke:#E5CCB7;stroke-width:0.75;stroke-miterlimit:10;" d="M219.819,369.152
					c-19.772-1.863-39.311-3.935-58.914,1.96c-13.005,3.906-25.872,11.672-31.364,24.764c-3.792,9.04-3.76,20.236-0.261,29.427
					c4.289,11.292,13.712,17.184,24.52,19.188c3.625,0.672,7.418,0.914,11.257,0.773c33.358-1.225,66.123-10.467,96.298-24.869
					c12.855-6.165,25.406-13.335,37.183-21.323c2.873-1.949,5.704-3.956,8.487-6.021c5.213-3.868,10.781-8.144,12.854-14.584
					c1.225-3.807,0.899-8.233-1.433-11.452c-2.366-3.266-6.364-4.812-10.24-5.019c-8.944-0.477-17.217,4.277-26.26,6.182
					c-0.473,0.1-0.947,0.193-1.422,0.276c-17.42,3.043-35.294,2.79-52.832,1.384C225.061,369.628,222.437,369.394,219.819,369.152z"
					/>
				<path style="fill:none;stroke:#E5CCB7;stroke-width:0.75;stroke-miterlimit:10;" d="M213.223,380.376
					c-14.345-1.04-28.624-2.464-42.889,1.654c-9.505,2.736-18.836,8.169-23.274,17.321c-3.123,6.441-3.708,14.65-1.069,21.458
					c3.149,8.172,10.279,12.216,18.19,13.579c2.66,0.457,5.432,0.628,8.235,0.542c24.4-0.741,48.437-6.813,70.662-16.815
					c9.369-4.216,18.739-9.29,27.405-15.109c2.113-1.419,4.186-2.889,6.21-4.412c3.801-2.862,7.772-6.049,9.305-10.739
					c0.904-2.768,0.715-5.956-0.813-8.388c-1.594-2.536-4.28-3.838-6.946-4.2c-6.211-0.845-12.315,2.239-19.244,3.543
					c-0.349,0.066-0.698,0.13-1.048,0.186c-12.832,2.069-26.015,2.411-38.93,1.738C217.08,380.634,215.148,380.516,213.223,380.376z
					"/>
				<path style="fill:none;stroke:#E5CCB7;stroke-width:0.75;stroke-miterlimit:10;" d="M206.627,391.601
					c-8.915-0.245-17.938-0.993-26.864,1.349c-6.005,1.566-11.828,4.663-15.184,9.878c-2.473,3.843-3.655,9.065-1.877,13.489
					c2.009,5.052,6.846,7.249,11.86,7.97c1.695,0.242,3.446,0.341,5.213,0.311c15.441-0.258,30.729-3.2,45.025-8.761
					c5.873-2.285,12.072-5.245,17.628-8.894c1.353-0.888,2.668-1.822,3.932-2.803c2.389-1.856,4.764-3.954,5.755-6.894
					c0.583-1.729,0.539-3.691-0.193-5.324c-0.815-1.818-2.201-2.871-3.652-3.382c-3.492-1.229-7.409,0.211-12.226,0.904
					c-0.225,0.032-0.449,0.067-0.674,0.097c-8.245,1.095-16.736,2.032-25.029,2.092
					C209.099,391.639,207.861,391.635,206.627,391.601z"/>
				<path style="fill:none;stroke:#E5CCB7;stroke-width:0.75;stroke-miterlimit:10;" d="M182.098,406.305
					c-1.899,1.185-3.603,3.479-2.685,5.52c0.869,1.932,3.414,2.282,5.531,2.361c7.204,0.267,14.464,0.531,21.58-0.627
					c4.692-0.764,12.029-3.219,12.139-9.184c0.078-4.24-1.886-4.342-5.568-4.3c-4.296,0.049-8.797,2.135-13.064,2.751
					C194.116,403.68,187.383,403.008,182.098,406.305z"/>
			</g>
			<g>
				<path style="fill:none;stroke:#E5CCB7;stroke-width:0.75;stroke-miterlimit:10;" d="M-18.452,338.452
					c23.507-7.51,54.562-5.954,72.947,12.35c10.879,10.832,13.226,24.593,13.919,39.272c1.468,31.117,0.759,68.131,32.754,84.335
					c10.816,5.478,22.562,8.135,34.504,9.75c10.916,1.476,23.572,0.851,33.709,5.489c13.864,6.343,17.27,25.409,3.063,33.748"/>
				<path style="fill:none;stroke:#E5CCB7;stroke-width:0.75;stroke-miterlimit:10;" d="M-17.873,357.856
					c16.483-5.123,37.02-5.46,52.955,2.643c4.426,2.252,8.478,5.139,11.994,8.72c9.552,9.709,11.647,22.027,12.401,35.091
					c0.239,4.101,0.445,8.308,0.724,12.542c1.288,19.579,4.097,39.694,17.639,53.19c3.353,3.337,7.363,6.272,12.171,8.701
					c9.656,4.878,20.106,7.346,30.685,8.974c3.319,0.514,6.81,0.822,10.323,1.18c6.733,0.684,13.546,1.561,19.386,4.405
					c12.131,5.88,15.147,22.736,2.794,30.351"/>
				<path style="fill:none;stroke:#E5CCB7;stroke-width:0.75;stroke-miterlimit:10;" d="M-17.294,377.259
					c14.565-4.368,32.616-4.718,46.533,2.574c3.869,2.029,7.381,4.617,10.419,7.803c8.225,8.586,10.069,19.461,10.883,30.91
					c0.261,3.604,0.505,7.29,0.827,10.988c1.492,17.099,4.634,34.358,16.717,45.995c3.002,2.882,6.554,5.426,10.771,7.55
					c8.497,4.278,17.65,6.556,26.866,8.198c2.897,0.522,5.932,0.879,8.979,1.286c5.836,0.775,11.707,1.765,16.73,4.395
					c10.385,5.439,13.025,20.063,2.524,26.954"/>
				<path style="fill:none;stroke:#E5CCB7;stroke-width:0.75;stroke-miterlimit:10;" d="M-16.715,396.662
					c12.648-3.613,28.212-3.976,40.111,2.505c3.311,1.806,6.284,4.096,8.843,6.886c6.898,7.464,8.49,16.896,9.366,26.729
					c0.283,3.106,0.564,6.272,0.931,9.434c1.696,14.619,5.171,29.021,15.794,38.8c2.65,2.428,5.746,4.581,9.371,6.399
					c7.337,3.678,15.194,5.766,23.046,7.423c2.475,0.529,5.054,0.935,7.635,1.393c4.939,0.867,9.87,1.962,14.074,4.385
					c8.646,4.984,10.902,17.39,2.254,23.557"/>
				<path style="fill:none;stroke:#E5CCB7;stroke-width:0.75;stroke-miterlimit:10;" d="M-16.135,416.065
					c10.73-2.858,23.808-3.234,33.69,2.436c2.754,1.583,5.18,3.58,7.267,5.969c5.554,6.356,6.911,14.33,7.848,22.548
					c0.305,2.608,0.623,5.254,1.034,7.88c1.9,12.138,5.709,23.685,14.872,31.605c2.299,1.973,4.937,3.735,7.971,5.248
					c6.177,3.079,12.741,4.963,19.227,6.647c2.053,0.533,4.176,0.992,6.291,1.499c4.043,0.959,8.034,2.158,11.417,4.375
					c6.906,4.525,8.779,14.717,1.984,20.159"/>
				<path style="fill:none;stroke:#E5CCB7;stroke-width:0.75;stroke-miterlimit:10;" d="M-15.556,435.469
					c8.813-2.103,19.403-2.492,27.268,2.367c2.197,1.36,4.082,3.058,5.692,5.051c4.226,5.233,5.332,11.764,6.33,18.367
					c0.327,2.111,0.682,4.236,1.137,6.325c2.104,9.658,6.233,18.365,13.949,24.409c1.945,1.523,4.128,2.889,6.571,4.097
					c5.017,2.479,10.286,4.173,15.407,5.871c1.632,0.541,3.298,1.049,4.948,1.605c3.146,1.051,6.198,2.351,8.761,4.365
					c5.169,4.061,6.656,12.043,1.714,16.762"/>
				<path style="fill:none;stroke:#E5CCB7;stroke-width:0.75;stroke-miterlimit:10;" d="M-14.977,454.872
					c6.896-1.348,14.999-1.75,20.846,2.297c1.639,1.138,2.986,2.535,4.116,4.134c2.902,4.106,3.753,9.198,4.812,14.186
					c0.349,1.613,0.741,3.218,1.24,4.771c2.308,7.178,6.774,13.026,13.027,17.214c1.594,1.068,3.32,2.043,5.171,2.945
					c3.857,1.879,7.83,3.387,11.588,5.096c1.209,0.55,2.42,1.106,3.604,1.712c2.249,1.142,4.365,2.54,6.105,4.355
					c3.438,3.587,4.534,9.371,1.445,13.365"/>
				<path style="fill:none;stroke:#E5CCB7;stroke-width:0.75;stroke-miterlimit:10;" d="M-14.398,474.275
					c4.978-0.593,10.595-1.008,14.424,2.228c4.626,3.911,4.322,11.096,7.178,16.438c2.512,4.697,7.32,7.676,12.104,10.019
					c4.784,2.343,9.865,4.342,13.799,7.933c3.935,3.59,6.507,9.33,4.623,14.313"/>
			</g>
		</g>
	</g>
</g>
</svg>
