<svg width="1440" height="866" viewBox="0 0 1440 866" fill="none" xmlns="http://www.w3.org/2000/svg">
<g clip-path="url(#clip0_1_5)">
<path d="M1440 0H0V866H1440V0Z" fill="#141313"/>
<path d="M999.325 -26.3766C964.502 -32.1182 923.898 -30.3741 893.931 -11.6044C848.15 17.0689 860.408 74.7289 844.754 116.79C817.344 190.442 740.064 201.281 665.455 212.29C579.921 224.909 610.318 310.634 615.585 363.516C628.316 491.353 458.724 529.083 354.584 483.645C285.867 453.665 237.731 398.852 169.807 368.13C120.584 345.865 63.7325 337.574 9.23901 344.713C-4.45827 346.507 -20.5018 351.303 -23.8176 363.426M1302.6 -37.5723C1277.28 7.12026 1297.21 60.4814 1308.43 109.641C1314.51 136.277 1317.88 163.419 1318.47 190.61C1318.89 210.131 1317.71 230.328 1308.24 247.884C1290.67 280.459 1247.91 296.582 1207.76 297.365C1167.61 298.148 1128.62 286.615 1089.72 277.634C1050.81 268.656 1009.28 262.213 970.934 272.977C911.324 289.712 874.067 344.098 857.388 398.369C846.87 432.59 843.882 473.176 869.887 499.834C896.3 526.913 944.07 528.816 980.899 514.778C1017.73 500.739 1046.57 474.22 1075.71 449.52C1104.84 424.82 1137.02 400.509 1176.09 392.833C1190.45 390.012 1205.74 389.617 1219.59 394.027C1250.67 403.915 1267.25 435.647 1268.82 465.338C1271.59 517.445 1238.18 566.826 1193.88 600.353C1149.57 633.879 1095.16 654.249 1041.66 674.048C1009.13 686.085 976.547 698.116 945.168 712.425C917.243 725.161 889.645 740.207 870.419 762.475C838.429 799.526 834.703 850.161 837.681 897.048M422.602 889.709C422.692 861.133 445.476 836.561 470.891 819.503C504.495 796.949 542.546 784.17 581.376 771.265C658.18 745.737 728.496 715.243 771.051 649.521C789.425 621.144 805.849 590.583 840.902 576.285C876.657 561.701 916.228 558.556 953.313 547.776C995.821 535.418 1031.63 514.704 1065.33 488.928C1098.36 463.665 1154.26 394.856 1205.07 417.826C1242.63 434.805 1240.25 477.363 1229.72 508.394C1213.72 555.496 1172.9 591.695 1125.58 614.429C1069.64 641.297 1011.28 665.369 952.324 686.3C906.081 702.717 858.874 722.876 832.051 762.598C802.032 807.053 801.855 862.233 804.328 912.556M-33.5943 115.578C-5.44899 137.916 30.8985 151.695 68.2829 154.203C73.4208 154.548 78.9485 154.6 83.2704 152.07C91.1577 147.454 91.0329 137.204 90.1555 128.76C87.4694 102.926 86.1869 76.5163 93.2237 51.3573C100.259 26.1982 116.682 2.14942 142.044 -10.0906M-12.5012 103.215C1.38813 113.382 18.0345 120.459 35.566 123.651C40.4025 124.531 45.5097 125.108 50.1984 123.722C60.1344 120.786 64.5792 110.422 66.3091 101.121C69.9782 81.3919 67.2825 61.0807 70.3853 41.2718C73.488 21.4647 84.5472 0.587156 105.356 -6.33218M-14.4442 73.6395C-6.30339 77.9261 2.07934 82.2544 11.3683 83.7024C20.6573 85.1486 31.1846 83.1516 37.1635 76.5752C41.7619 71.516 42.9945 64.6781 43.7145 58.1675C45.1104 45.5689 45.2486 32.7313 49.1347 20.5658C53.0208 8.39847 61.4688 -3.39125 74.4979 -8.09883M-15.5885 39.3441C-16.5696 40.3417 -14.7783 41.6234 -13.3536 41.9733C-2.42883 44.6544 10.7635 46.8714 18.9561 39.8204C25.6128 34.091 25.8201 24.7832 28.56 16.861C32.2867 6.07932 41.6486 -2.9929 53.303 -7.12025M-35.4279 586.199C9.70557 573.192 69.3312 575.887 104.63 607.589C125.518 626.35 130.024 650.184 131.355 675.608C134.173 729.503 132.812 793.611 194.243 821.676C215.009 831.164 237.562 835.766 260.49 838.563C281.449 841.12 305.748 840.037 325.211 848.07C351.83 859.056 358.37 892.079 331.092 906.522M-34.3162 619.807C-2.66883 610.934 36.7622 610.35 67.3574 624.384C75.8553 628.285 83.6352 633.285 90.3859 639.487C108.726 656.303 112.748 677.638 114.196 700.265C114.655 707.368 115.05 714.654 115.586 721.988C118.059 755.899 123.452 790.738 149.453 814.113C155.891 819.892 163.59 824.976 172.821 829.183C191.361 837.632 211.425 841.906 231.736 844.726C238.109 845.616 244.811 846.15 251.556 846.77C264.484 847.954 277.565 849.473 288.778 854.399C312.069 864.583 317.86 893.778 294.142 906.967M-33.2045 653.413C-5.23971 645.847 29.4182 645.241 56.1389 657.871C63.5673 661.385 70.3104 665.867 76.1433 671.386C91.9353 686.257 95.4758 705.092 97.0387 724.922C97.5398 731.164 98.0083 737.548 98.6265 743.953C101.491 773.568 107.524 803.461 130.723 823.616C136.487 828.608 143.307 833.014 151.404 836.693C167.718 844.102 185.291 848.048 202.986 850.892C208.548 851.796 214.376 852.414 220.226 853.119C231.431 854.461 242.703 856.176 252.348 860.731C272.287 870.152 277.356 895.48 257.194 907.416M-32.0928 687.019C-7.80867 680.761 22.0742 680.132 44.9203 691.357C51.2774 694.485 56.9856 698.452 61.8988 703.284C75.143 716.211 78.1996 732.548 79.8816 749.578C80.4249 754.958 80.9644 760.442 81.6691 765.918C84.9254 791.238 91.5974 816.182 111.994 833.12C117.082 837.325 123.026 841.054 129.986 844.203C144.073 850.573 159.158 854.19 174.234 857.059C178.986 857.976 183.938 858.679 188.893 859.472C198.376 860.974 207.844 862.87 215.915 867.067C232.516 875.699 236.847 897.186 220.243 907.868M-30.9792 720.625C-10.3776 715.675 14.7321 715.023 33.7056 724.844C38.9932 727.586 43.6512 731.044 47.6582 735.182C58.3219 746.191 60.9273 760.002 62.7264 774.235C63.312 778.752 63.9225 783.335 64.7116 787.883C68.3596 808.906 75.6729 828.906 93.2659 842.623C97.68 846.04 102.745 849.092 108.57 851.713C120.43 857.046 133.033 860.309 145.486 863.225C149.428 864.148 153.504 864.943 157.565 865.822C165.327 867.483 172.99 869.559 179.485 873.399C192.745 881.236 196.341 898.889 183.295 908.315M-29.8675 754.232C-12.9466 750.59 7.38621 749.916 22.487 758.332C26.7052 760.687 30.3244 763.628 33.4156 767.08C41.5296 776.144 43.6531 787.456 45.5693 798.892C46.1971 802.548 46.8787 806.229 47.7523 809.847C51.792 826.575 59.7196 841.655 74.5344 852.123C78.2688 854.761 82.4601 857.127 87.1507 859.219C96.7833 863.513 106.9 866.447 116.732 869.388C119.866 870.325 123.064 871.205 126.232 872.168C132.273 873.988 138.132 876.24 143.053 879.728C152.978 886.761 155.833 900.586 146.344 908.76M-28.7559 787.838C-15.5156 785.504 0.0422144 784.807 11.2685 791.817C14.4153 793.788 17.0016 796.207 19.1712 798.977C24.743 806.088 26.3769 814.908 28.4102 823.547C29.0803 826.341 29.8329 829.121 30.791 831.81C35.2224 844.243 43.7971 854.371 55.8029 861.625C58.8633 863.475 62.1773 865.164 65.7312 866.726C73.1366 869.98 80.7648 872.592 87.9801 875.552C90.3014 876.505 92.6265 877.468 94.8998 878.517C99.2179 880.495 103.281 882.916 106.621 886.06C113.222 892.273 115.327 902.291 109.396 909.208M-27.6442 821.444C-18.0864 820.417 -7.30179 819.698 0.0498886 825.303C8.93181 832.077 8.34813 844.522 13.8316 853.774C18.6547 861.909 27.8861 867.069 37.0713 871.127C46.2566 875.185 56.0121 878.647 63.5654 884.867C71.1206 891.085 76.0589 901.026 72.4416 909.657M-3.05176e-05 7.62939e-06H1440V866H-3.05176e-05V7.62939e-06ZM494.882 602.826C463.375 601.054 431.61 595.855 401.096 592.083C330.28 583.329 254.277 585.134 202.502 635.682C143.276 693.507 158.066 782.407 241.818 811.473C305.604 833.61 378.111 821.503 439.701 799.198C495.383 779.033 550.055 756.61 603.617 732.222C643.926 713.868 703.878 695.647 721.718 654.282C738.772 614.742 706.982 572.095 660.01 571.309C630.248 570.812 606.47 586.93 579.535 595.408C552.812 603.813 522.822 604.397 494.882 602.826ZM1014.45 300.071C980.129 303.942 948.722 317.872 925.601 342.619C901.392 368.533 883.167 406.653 882.43 440.711C881.674 475.704 910.875 500.411 949.933 494.72C977.91 490.644 1000.43 474.031 1018.9 455.746C1041.12 433.75 1064.31 414.092 1091.74 397.501C1112.13 385.166 1146.98 362.771 1132.42 336.787C1115.53 306.656 1071.2 299.452 1037.4 298.967C1029.65 298.857 1021.98 299.22 1014.45 300.071ZM1013.39 316.788C985.912 319.887 960.764 331.041 942.252 350.858C922.867 371.608 908.275 402.131 907.686 429.399C907.079 457.418 930.461 477.202 961.736 472.646C984.136 469.382 1002.17 456.079 1016.96 441.438C1034.75 423.826 1053.32 408.085 1075.28 394.801C1091.61 384.925 1119.52 366.992 1107.85 346.187C1094.33 322.06 1058.83 316.293 1031.77 315.905C1025.57 315.816 1019.42 316.109 1013.39 316.788ZM1012.34 333.507C991.697 335.835 972.808 344.212 958.904 359.097C944.344 374.682 933.383 397.607 932.941 418.091C932.486 439.136 950.049 453.995 973.538 450.573C990.363 448.122 1003.9 438.13 1015.01 427.134C1028.38 413.905 1042.32 402.082 1058.82 392.104C1071.09 384.686 1092.05 371.218 1083.29 355.59C1073.13 337.468 1046.47 333.136 1026.14 332.845C1021.48 332.776 1016.87 332.996 1012.34 333.507ZM1011.28 350.226C997.48 351.783 984.851 357.384 975.554 367.335C965.82 377.754 958.491 393.083 958.195 406.778C957.89 420.848 969.633 430.783 985.338 428.495C996.588 426.857 1005.64 420.176 1013.07 412.824C1022.01 403.979 1031.33 396.074 1042.36 389.404C1050.56 384.443 1064.57 375.439 1058.72 364.99C1051.93 352.874 1034.1 349.977 1020.51 349.783C1017.39 349.738 1014.31 349.885 1011.28 350.226ZM1010.23 366.943C1003.27 367.728 996.895 370.554 992.206 375.572C987.297 380.827 983.601 388.559 983.451 395.466C983.297 402.564 989.22 407.574 997.14 406.419C1002.81 405.593 1007.38 402.222 1011.13 398.514C1015.63 394.053 1020.34 390.065 1025.9 386.702C1030.04 384.201 1037.11 379.658 1034.15 374.389C1030.73 368.279 1021.73 366.817 1014.88 366.718C1013.31 366.697 1011.75 366.772 1010.23 366.943ZM1332.47 238.999C1320.59 271.808 1295.05 295.704 1250.06 306.99C1227.14 312.742 1194.89 321.572 1200.56 348.91C1206.15 375.856 1241.88 384.935 1263.02 399.564C1294.49 421.337 1305.8 458.256 1335.31 481.603C1409.83 540.568 1485.31 463.078 1520.37 405.234C1564.89 331.785 1583.83 245.206 1576.2 161.97C1572.01 116.276 1557.96 71.7568 1532.39 31.9519C1511.8 -0.0917892 1478.18 -25.9298 1438.05 -35.2808C1409.06 -42.0356 1364.49 -42.8289 1340.02 -24.9633C1314.93 -6.64222 1318.77 27.3448 1321.59 53.0027C1328.25 113.493 1354.23 178.89 1332.47 238.999ZM1441.33 10.806C1416.58 5.11287 1378.88 4.68333 1358.05 19.9371C1341.92 31.7389 1339.66 51.0802 1340.46 69.2436C1340.71 75.0753 1341.28 80.7839 1341.8 86.0856C1346.89 137.479 1368.47 193.075 1350.18 244.247C1340.36 271.718 1319.51 292.007 1282.98 302.16C1282.35 302.336 1281.72 302.497 1281.08 302.681C1261.3 308.412 1233.55 317.278 1237.74 341.41C1237.99 342.891 1238.34 344.316 1238.78 345.692C1245.53 366.583 1273.25 375.648 1291.04 388.084C1317.62 406.663 1327.69 437.687 1352.91 457.376C1416.29 506.988 1480.71 442.484 1510.84 393.386C1549.45 330.706 1565.33 255.99 1559.43 184.711C1556.06 144.011 1544.49 104.149 1521.97 68.5699C1504.42 41.0623 1475.74 18.7039 1441.33 10.806ZM1444.61 56.8962C1424.1 52.2666 1393.28 52.199 1376.07 64.8426C1362.82 74.5765 1360.71 90.4139 1361.13 105.326C1361.26 110.114 1361.65 114.804 1362.02 119.17C1365.53 161.467 1382.71 207.263 1367.89 249.495C1359.93 272.184 1343.08 289.012 1313.64 297.911C1313.13 298.065 1312.61 298.197 1312.1 298.37C1295.42 304.111 1272.2 312.99 1274.91 333.909C1275.08 335.21 1275.32 336.469 1275.64 337.688C1280.56 356.168 1303.33 365.454 1319.07 376.603C1340.77 391.972 1349.58 417.114 1370.51 433.146C1422.76 473.404 1476.12 421.888 1501.32 381.535C1534.01 329.627 1546.88 266.763 1542.67 207.452C1540.13 171.742 1531.17 136.469 1511.57 105.19C1497.14 82.1678 1473.31 63.3375 1444.61 56.8962ZM1447.89 102.985C1431.63 99.4185 1407.67 99.713 1394.1 109.745C1383.71 117.411 1381.76 129.744 1381.8 141.404C1381.82 145.147 1382.03 148.82 1382.23 152.251C1384.18 185.454 1396.95 221.447 1385.6 254.741C1379.5 272.646 1366.66 286.074 1344.29 293.662C1343.9 293.794 1343.5 293.9 1343.12 294.061C1329.47 299.878 1310.83 308.708 1312.1 326.409C1312.18 327.53 1312.3 328.623 1312.5 329.686C1315.59 345.754 1333.41 355.257 1347.1 365.125C1363.94 377.264 1371.51 396.505 1388.12 408.92C1429.33 439.724 1471.42 401.239 1491.81 369.688C1518.44 328.476 1528.5 277.531 1525.91 230.197C1524.22 199.471 1517.77 168.839 1501.16 141.811C1489.8 123.31 1470.87 107.971 1447.89 102.985ZM1451.17 149.075C1439.15 146.572 1422.07 147.229 1412.13 154.649C1404.61 160.246 1402.8 169.076 1402.47 177.485C1402.37 180.183 1402.4 182.839 1402.44 185.334C1402.82 209.44 1411.19 235.633 1403.31 259.989C1399.07 273.11 1390.24 283.153 1374.95 289.414C1374.68 289.525 1374.39 289.608 1374.14 289.751C1363.42 295.782 1349.43 304.435 1349.27 318.91C1349.26 319.852 1349.28 320.777 1349.36 321.684C1350.59 335.343 1363.49 345.051 1375.12 353.645C1387.13 362.521 1393.41 375.924 1405.72 384.691C1435.81 406.118 1466.81 380.631 1482.29 357.84C1502.98 327.377 1510.23 288.284 1509.15 252.938C1508.36 227.188 1504.35 201.217 1490.76 178.429C1482.42 164.466 1468.43 152.605 1451.17 149.075ZM1454.45 195.165C1446.66 193.745 1436.46 194.744 1430.15 199.554C1425.5 203.084 1423.85 208.41 1423.15 213.566C1422.92 215.22 1422.78 216.857 1422.65 218.419C1421.47 233.43 1425.43 249.82 1421.02 265.238C1418.64 273.576 1413.81 280.276 1405.6 285.169C1405.45 285.257 1405.29 285.331 1405.16 285.444C1397.43 292.029 1387.99 300.166 1386.45 311.412C1386.35 312.176 1386.26 312.931 1386.22 313.684C1385.65 324.93 1393.6 334.815 1403.15 342.167C1410.37 347.73 1415.3 355.351 1423.33 360.466C1442.28 372.534 1462.23 360.04 1472.77 345.993C1487.55 326.295 1492.15 299.028 1492.39 275.682C1492.59 254.9 1490.88 233.624 1480.35 215.052C1475.02 205.64 1465.99 197.268 1454.45 195.165ZM1436.26 280.918C1436.23 280.989 1436.2 281.062 1436.17 281.133C1432.81 289.72 1425.48 296.835 1423.08 305.681C1420.68 314.514 1423.88 324.409 1431.18 330.687C1438.82 337.265 1455.05 342.155 1463.25 334.144C1472.28 325.318 1474.44 309.792 1475.63 298.424C1477.27 282.633 1477.19 266.118 1469.94 251.67C1467.52 246.85 1463.56 241.874 1457.73 241.254C1451.83 240.627 1446.53 244.874 1443.82 249.645C1438.4 259.183 1440.13 270.793 1436.26 280.918ZM901.092 788.124C943.29 743.068 1018.52 719.258 1076.83 696.169C1141.63 670.506 1202.09 641.015 1256 599.426C1322.89 547.826 1427.21 494.81 1480.18 589.514C1519.03 658.969 1528.11 747.741 1493.17 820.625C1437.04 937.739 1268.07 973.928 1140.21 968.54C1074.29 965.761 1005.46 953.662 947.017 924.921C914.918 909.137 881.581 879.733 878.091 845.183C875.977 824.257 885.819 804.433 901.092 788.124ZM1261.12 625.361C1317.49 577.781 1412.95 535.108 1455.62 618.539C1486.23 678.395 1488.08 750.006 1457.18 810.186C1408.02 905.94 1270.71 936.506 1165.18 937.09C1121.39 937.332 1074.74 934.206 1032.12 919.453C1019.45 915.068 1007.3 909.504 996.098 903.278C970.27 888.92 944.062 864.505 942.449 835.929C941.42 818.661 950.003 802.313 963.133 789.104C986.544 765.556 1021.03 749.856 1055.61 735.845C1075.81 727.662 1096.06 720.098 1114.25 712.418C1137.89 702.482 1160.58 691.686 1182.01 679.656C1210.08 663.905 1236.26 646.341 1261.12 625.361ZM1266.23 651.296C1312.08 607.586 1398.75 575.329 1431.06 647.564C1453.51 697.76 1448.08 752.266 1421.19 799.747C1379.06 874.137 1273.11 899.547 1190.16 905.639C1153.23 908.351 1112.62 909.69 1075.56 896.752C1064.55 892.908 1054.2 887.536 1045.18 881.635C1025.61 868.825 1006.63 849.278 1006.81 826.675C1006.92 813.067 1014.22 800.203 1025.18 790.086C1045.4 771.431 1074.55 759.998 1103.32 748.652C1120.11 742.029 1136.79 735.515 1151.68 728.67C1170.91 719.906 1189.05 710.143 1205.65 699.297C1227.4 685.105 1247.04 669.589 1266.23 651.296ZM1271.34 677.231C1306.54 637.146 1384.7 615.43 1406.5 676.589C1420.92 717.039 1408.14 754.525 1385.2 789.307C1350.22 842.341 1275.22 863.459 1215.14 874.187C1184.86 879.593 1150.49 885.175 1118.99 874.05C1109.64 870.751 1101.1 865.64 1094.27 859.99C1080.89 848.936 1069.15 834.057 1071.17 817.417C1072.39 807.474 1078.47 798.109 1087.22 791.067C1104.32 777.322 1128.07 770.141 1151.03 761.455C1164.41 756.39 1177.51 750.897 1189.11 744.919C1203.91 737.29 1217.52 728.597 1229.3 718.936C1244.72 706.304 1257.74 692.715 1271.34 677.231ZM1276.45 703.166C1300.6 666.311 1371.01 655.371 1381.94 705.613C1388.59 736.207 1368.36 756.816 1349.21 778.868C1321.63 810.616 1277.32 829.043 1240.11 842.736C1216.39 851.469 1188.36 860.658 1162.42 851.351C1154.73 848.593 1147.93 843.891 1143.35 838.347C1135.95 829.38 1131.62 818.85 1135.53 808.163C1137.83 801.893 1142.79 796.071 1149.27 792.049C1163.37 783.292 1181.59 780.283 1198.73 774.259C1208.71 770.754 1218.24 766.315 1226.53 761.169C1236.92 754.719 1245.98 747.051 1252.94 738.573C1262.04 727.504 1268.26 715.673 1276.45 703.166ZM1281.57 729.101C1278.36 738.502 1279.37 748.706 1276.58 758.214C1272.68 771.533 1260.95 782.762 1246.44 787.064C1235.11 790.426 1222.67 789.724 1211.31 793.031C1199.96 796.336 1189.14 806.355 1192.44 816.704C1194.23 822.345 1199.83 826.438 1205.85 828.651C1226.24 836.144 1249.43 825.241 1265.09 811.286C1281.23 796.905 1293.66 779.447 1313.22 768.431C1329.03 759.522 1356.85 755.356 1357.38 734.64C1358.38 695.273 1293.19 694.996 1281.57 729.101ZM1291 499.654C1290.54 504.674 1292.01 509.797 1291.38 514.915C1290.31 523.648 1283.96 530.661 1281.36 538.952C1278.74 547.286 1285.83 553.074 1294.4 549.034C1303.2 544.884 1310.95 539.251 1319.83 535.264C1323.63 533.558 1327.48 531.76 1330.45 529.026C1342.39 518.038 1327.71 504.416 1317.94 497.597C1310.2 492.191 1295.04 481.687 1291.37 497.323C1291.19 498.097 1291.08 498.875 1291 499.654ZM876.157 131.344C874.143 144.721 871.3 157.929 866.118 170.592C855.276 197.088 854.066 230.95 886.188 245.527C923.251 262.343 967.684 247.546 1006.83 247.626C1052.2 247.718 1097.62 259.797 1142.74 266.617C1181.73 272.511 1261.6 288.354 1280.8 231.484C1307.86 151.351 1274.33 -6.33219 1186.12 -26.5568C1132.26 -38.9042 1074.63 -11.5213 1020.08 -14.6943C979.281 -17.0671 936.017 -10.4041 909.266 20.0739C880.848 52.4588 881.989 92.6118 876.157 131.344ZM1175.79 -5.01241C1129.86 -15.8253 1078.99 6.23347 1030.62 3.24058C994.8 1.0444 957.011 6.62663 933.141 32.1996C907.523 59.6466 907.34 94.0389 902.838 128.353C901.338 139.785 899.017 151.032 894.885 161.809C886.241 184.363 885.813 212.941 913.2 225.3C936.065 235.573 962.118 232.261 987.466 229.516C997.728 228.399 1007.93 227.403 1017.81 227.458C1056.92 227.644 1096.43 237.946 1135.64 243.744C1170.25 248.807 1238.71 261.922 1255.88 213.769C1280.25 145.42 1251.11 12.751 1175.79 -5.01241ZM1165.45 16.532C1127.46 7.25536 1083.36 23.9882 1041.16 21.1737C1010.32 19.1559 977.979 23.6539 957.01 44.3236C934.174 66.8344 932.675 95.4505 929.518 125.36C928.518 134.841 926.734 144.132 923.652 153.024C917.207 171.636 917.56 194.931 940.214 205.071C959.603 213.663 981.642 211.058 1003.09 208.862C1011.71 207.968 1020.35 207.199 1028.78 207.289C1061.63 207.57 1095.24 216.091 1128.55 220.868C1158.76 225.099 1215.84 235.484 1230.96 196.05C1252.66 139.488 1227.89 31.8359 1165.45 16.532ZM1155.11 38.078C1125.06 30.336 1087.72 41.7447 1051.69 39.1086C1025.83 37.2675 998.915 40.6726 980.882 56.4476C960.795 74.0188 957.976 96.8396 956.198 122.366C955.674 129.89 954.453 137.232 952.418 144.238C948.171 158.908 949.277 176.974 967.225 184.841C983.111 191.802 1001.16 189.853 1018.72 188.208C1025.69 187.537 1032.77 186.997 1039.74 187.118C1066.35 187.494 1094.04 194.31 1121.45 197.992C1147.26 201.459 1192.97 209.045 1206.03 178.334C1225.08 133.551 1204.67 50.9191 1155.11 38.078ZM1144.78 59.6224C1122.65 53.4149 1092.08 59.4994 1062.23 57.0434C1041.35 55.3807 1019.79 57.6687 1004.75 68.5733C987.354 81.1858 983.207 98.1992 982.877 119.375C982.79 124.934 982.168 130.333 981.183 135.455C979.135 146.183 981.018 158.973 994.237 164.613C1006.64 169.906 1020.69 168.652 1034.34 167.557C1039.68 167.112 1045.19 166.811 1050.71 166.951C1071.06 167.472 1092.84 172.462 1114.35 175.117C1135.78 177.762 1170.16 182.608 1181.11 160.617C1197.56 127.607 1181.45 70.004 1144.78 59.6224ZM1134.44 81.1685C1120.25 76.4973 1096.44 77.2541 1072.77 74.9783C1056.86 73.4922 1040.57 74.5869 1028.62 80.6991C1013.81 88.2731 1008.24 99.5259 1009.56 116.383C1009.84 119.972 1009.89 123.436 1009.95 126.672C1010.1 133.458 1012.77 140.957 1021.25 144.386C1030.18 147.998 1040.21 147.473 1049.97 146.907C1053.67 146.692 1057.61 146.609 1061.69 146.784C1075.78 147.393 1091.66 150.594 1107.26 152.245C1124.3 154.048 1147.44 156.19 1156.19 142.902C1170.17 121.68 1158.22 89.0889 1134.44 81.1685ZM1036.24 113.391C1037.81 118.484 1042.78 122.286 1048.26 124.158C1053.74 126.031 1059.73 126.249 1065.59 126.254C1081.84 126.268 1118.59 134.831 1131.27 125.187C1143.24 116.08 1135 108.174 1124.11 102.715C1108.45 94.8668 1025.32 78.0699 1036.24 113.391ZM1107.27 481.562C1066.82 518.078 1016.17 545.329 961.333 560.084C941.466 565.429 920.895 569.222 902.323 577.534C883.751 585.844 866.899 599.71 861.99 617.881C857.082 636.051 867.982 658.115 888.131 662.525C898.13 664.712 908.594 662.511 918.589 660.309C967.285 649.588 1016.2 638.723 1062.38 621.144C1093.52 609.286 1128.3 592.981 1156.84 571.382C1185.38 549.782 1207.69 522.887 1213.89 489.853C1214.77 485.157 1215.29 480.41 1215.44 475.651C1215.64 469.597 1214.61 464.122 1212.64 458.322C1208.36 445.683 1199.08 431.181 1183.33 428.912C1170.78 427.104 1158.88 433.98 1149.62 440.822C1133.51 452.736 1121.9 468.361 1107.27 481.562ZM1165.09 456.528C1155.35 455.126 1146.09 460.305 1138.81 465.511C1126.2 474.559 1116.98 486.503 1105.51 496.689C1084.03 515.774 1059.13 531.894 1032.45 543.895C1019.65 549.695 1006.4 554.625 992.826 558.575C977.604 563.004 961.855 566.271 947.56 572.885C938.64 577.014 930.204 582.75 924.106 589.857C920.433 594.137 917.61 598.915 916.065 604.161C914.796 608.464 914.661 613.052 915.531 617.461C917.487 627.344 924.522 636.319 935.157 638.945C939.627 640.048 944.285 640.021 948.939 639.468C952.308 639.07 955.67 638.407 958.975 637.728C970.541 635.348 982.149 632.767 993.671 630.031C1020.31 623.705 1046.72 616.538 1072.02 606.779C1072.82 606.47 1073.62 606.158 1074.43 605.843C1098.34 596.449 1124.45 583.762 1145.94 567.135C1167.9 550.258 1185.01 529.072 1189.5 503.487C1190.14 499.838 1190.49 496.154 1190.55 492.468C1190.63 487.783 1189.76 483.545 1188.17 479.076C1184.71 469.351 1177.4 458.298 1165.09 456.528ZM1146.84 484.146C1139.92 483.152 1133.28 486.621 1127.98 490.203C1118.88 496.358 1112.06 504.646 1103.76 511.815C1088.16 525.267 1070.38 536.969 1051.93 545.81C1042.95 550.113 1033.76 553.932 1024.32 557.065C1013.74 560.579 1002.82 563.316 992.797 568.235C986.544 571.309 980.59 575.433 976.157 580.438C973.494 583.448 971.382 586.783 970.14 590.439C969.114 593.442 968.855 596.645 969.295 599.75C970.289 606.706 974.849 613.166 982.184 615.361C985.323 616.299 988.681 616.452 992.056 616.175C994.502 615.975 996.95 615.574 999.36 615.139C1007.79 613.616 1016.29 611.704 1024.67 609.676C1044.05 604.989 1063.3 599.655 1081.66 592.408C1082.24 592.179 1082.82 591.947 1083.41 591.712C1100.88 584.673 1119.61 575.182 1135.04 562.879C1150.35 550.667 1162.33 535.249 1165.11 517.113C1165.5 514.51 1165.68 511.889 1165.65 509.277C1165.61 505.962 1164.92 502.957 1163.7 499.822C1161.07 493.021 1155.72 485.417 1146.84 484.146ZM1128.6 511.763C1124.49 511.176 1120.49 512.944 1117.16 514.894C1111.58 518.175 1107.14 522.789 1102 526.942C1092.3 534.764 1081.66 542.095 1071.4 547.728C1066.26 550.554 1061.11 553.239 1055.82 555.555C1049.88 558.153 1043.77 560.361 1038.03 563.586C1034.45 565.604 1030.98 568.117 1028.21 571.023C1026.55 572.765 1025.16 574.652 1024.21 576.72C1023.43 578.422 1023.05 580.239 1023.06 582.044C1023.09 586.071 1025.18 590.04 1029.21 591.783C1031.02 592.566 1033.08 592.89 1035.17 592.888C1036.7 592.89 1038.23 592.748 1039.75 592.559C1045.04 591.894 1050.42 590.65 1055.67 589.329C1067.8 586.28 1079.88 582.778 1091.3 578.045C1091.67 577.894 1092.03 577.743 1092.39 577.589C1103.43 572.906 1114.81 566.657 1124.14 558.634C1132.85 551.136 1139.69 541.437 1140.72 530.749C1140.87 529.192 1140.88 527.635 1140.76 526.099C1140.6 524.152 1140.07 522.383 1139.23 520.58C1137.42 516.69 1134.03 512.539 1128.6 511.763ZM1090.88 549.647C1087.28 553.608 1084.67 558.381 1080.26 561.608C1079.07 562.477 1077.75 563.238 1076.82 564.338C1075.89 565.437 1075.44 567.019 1076.23 568.203C1076.68 568.879 1077.47 569.326 1078.29 569.601C1080.97 570.502 1083.95 569.773 1086.67 568.983C1091.69 567.528 1096.77 565.794 1101.37 563.468C1105.98 561.142 1110.11 558.22 1113.23 554.389C1117.13 549.607 1118.91 540.571 1110.35 539.383C1103.37 538.411 1094.83 545.301 1090.88 549.647ZM480.996 835.853C528.856 797.919 598.552 788.427 656.73 768.362C669.166 764.074 681.431 759.26 692.809 753.027C715.5 740.596 734.844 724.066 754.854 708.499C773.583 693.928 794.619 673.781 821.211 673.121C834.509 672.792 848.686 680.125 850.003 693.048C852.511 717.659 819.17 744.464 807.087 764.635C791.654 790.402 790.606 819.877 787.089 848.313C783.356 878.472 774.449 906.569 747.681 926.785C690.044 970.313 587.691 952.735 522.353 935.181C495.863 928.064 454.418 916.831 449.234 887.667C445.523 866.792 465.095 848.457 480.996 835.853ZM687.4 771.44C705.696 761.574 721.532 748.279 737.881 735.88C746.657 729.241 755.969 721.272 766.335 715.649C774.438 711.254 782.959 708.281 791.965 708.258C802.412 708.236 813.083 714.322 813.713 725.128C814.886 745.252 787.398 766.28 776.995 782.365C764.175 802.188 762.611 825.09 759.068 847.18C757.793 855.177 756.075 863 753.533 870.479C748.644 884.889 740.701 898.014 726.939 908.567C713.599 918.81 697.321 925.042 679.632 928.399C647.111 934.618 609.738 931.151 577.467 924.687C567.83 922.747 558.66 920.535 550.247 918.26C529.194 912.56 497.101 903.309 492.973 880.341C489.951 863.598 505.165 848.713 517.928 838.449C532.18 827.004 548.988 818.81 566.776 812.121C596.602 800.905 629.24 793.881 658.466 783.706C668.419 780.242 678.244 776.379 687.4 771.44ZM681.99 789.854C695.891 782.554 708.219 772.495 720.904 763.263C727.807 758.268 735.051 752.426 743.036 748.453C749.579 745.196 756.177 743.16 762.714 743.397C770.31 743.681 777.491 748.515 777.419 757.21C777.289 772.837 755.658 788.098 746.899 800.097C736.758 813.99 734.611 830.304 731.044 846.047C729.767 851.739 728.208 857.326 726.115 862.697C722.099 873.034 716.093 882.554 706.197 890.352C696.549 897.976 684.92 902.888 672.278 905.857C648.912 911.342 621.907 910.178 598.124 905.891C591.082 904.605 584.341 903.035 578.139 901.336C562.522 897.053 539.783 889.786 536.709 873.015C534.374 860.406 545.234 848.973 554.855 841.049C565.469 832.339 578.145 826.155 591.471 821.048C613.847 812.469 638.173 806.84 660.2 799.051C667.672 796.412 675.059 793.499 681.99 789.854ZM676.579 808.267C686.083 803.532 694.892 796.691 703.928 790.644C708.95 787.282 714.152 783.604 719.737 781.255C724.737 779.154 729.394 778.035 733.463 778.534C738.207 779.125 741.932 782.699 741.124 789.291C739.761 800.413 724.013 809.933 716.799 817.83C709.48 825.842 706.608 835.517 703.016 844.916C701.739 848.302 700.339 851.656 698.694 854.917C695.547 861.18 691.482 867.098 685.451 872.136C679.494 877.14 672.518 880.755 664.923 883.315C650.717 888.102 634.068 889.242 618.779 887.098C614.327 886.472 610.019 885.537 606.029 884.416C595.849 881.55 582.465 876.267 580.443 865.692C578.797 857.217 585.299 849.234 591.779 843.652C598.756 837.677 607.298 833.504 616.164 829.978C631.091 824.035 647.107 819.802 661.93 814.402C666.927 812.58 671.871 810.618 676.579 808.267ZM640.863 838.899C636.459 840.846 632.049 843.006 628.71 846.247C625.371 849.487 623.224 854.02 624.182 858.36C625.511 864.382 632.634 868.364 639.441 868.297C646.245 868.229 652.554 864.914 657.573 860.768C662.592 856.619 666.626 851.611 671.282 847.132C675.869 842.718 681.062 838.821 686.709 835.558C692.724 832.082 702.394 828.014 704.836 821.37C707.867 813.124 704.049 812.142 696.442 814.056C687.934 816.196 679.292 823.23 671.172 826.678C661.158 830.934 650.807 834.505 640.863 838.899ZM795.016 640.753C792.947 644.219 791.071 647.933 790.984 651.868C790.898 655.803 793.016 660.013 797.021 661.574C801.65 663.377 806.853 661.246 811.699 659.987C824.095 656.764 838.003 659.637 848.273 666.68C858.543 673.722 865.213 684.616 867.429 696.08C867.9 698.516 868.41 701.311 870.745 702.603C871.859 703.22 873.216 703.367 874.522 703.351C880.247 703.287 885.433 700.452 890.197 697.587C893.42 695.647 896.947 693.091 896.938 689.596C896.932 686.882 894.655 684.54 892.019 683.231C889.382 681.921 886.374 681.397 883.505 680.577C870.664 676.904 861.045 667.471 852.06 658.418C849.018 655.354 845.931 652.228 844.04 648.485C841.133 642.731 841.34 636.089 842.469 629.847C843.625 623.466 849.228 611.247 845.29 605.116C841.795 599.676 833.727 603.836 829.505 606.28C815.1 614.623 803.096 627.233 795.016 640.753ZM813.901 236.3C796.602 229.036 776.903 225.357 758.196 224.266C716.652 221.841 656.394 226.902 639.329 267.724C624.941 302.142 645.65 344.765 646.856 380.285C647.743 406.405 639.381 432.008 624.109 454.12C616.278 465.459 606.743 475.702 596.173 485.038C585.853 494.153 566.676 505.292 567.251 520.113C567.953 538.24 593.735 545.689 610.095 545.881C624.18 546.046 638.085 543.086 652.159 542.419C676.451 541.271 692.772 555.419 712.677 565.671C737.631 578.524 770.552 578.604 797.138 569.535C825.162 559.975 833.604 537.956 830.853 512.326C827.086 477.232 821.52 446.489 829.284 411.317C834.57 387.374 842.542 363.368 852.559 340.681C861.393 320.671 868.234 302.405 860.381 280.813C852.595 259.407 835.041 245.177 813.901 236.3ZM656.761 292.185C645.02 320.992 661.54 356.449 662.1 386.032C662.502 407.254 655.73 428.041 643.294 446.039C636.916 455.268 629.178 463.62 620.623 471.25C612.253 478.723 596.811 487.818 597.195 499.864C597.671 514.579 618.251 520.605 631.329 521.148C642.599 521.618 653.937 519.813 665.549 519.617C685.528 519.215 699.402 530.891 716.16 538.924C737.391 549.101 764.678 547.806 786.482 539.669C808.95 531.284 815.91 513.455 813.732 492.461C810.755 463.681 806.352 438.392 812.312 409.533C814.698 397.979 817.667 386.373 821.58 374.999C824.46 366.635 827.837 358.356 831.565 350.264C839.203 333.592 845.422 318.293 839.451 300.386C833.562 282.574 819.341 270.563 800.955 262.987C786.326 256.921 769.876 254.074 754.318 253.508C719.691 252.287 670.648 258.224 656.761 292.185ZM674.193 316.644C665.098 339.839 677.441 368.124 677.343 391.778C677.276 408.099 672.077 424.075 662.477 437.957C657.554 445.077 651.611 451.539 645.068 457.461C638.65 463.293 626.941 470.344 627.135 479.615C627.387 490.92 642.778 495.522 652.558 496.415C661.031 497.19 669.782 496.576 678.937 496.814C694.6 497.219 706.042 506.355 719.639 512.173C737.163 519.671 758.776 517.026 775.822 509.8C792.728 502.633 798.209 488.952 796.608 472.595C794.421 450.129 791.159 430.286 795.333 407.746C797.065 398.391 799.085 388.959 802.22 379.746C804.509 373.04 807.389 366.382 810.568 359.84C817.044 346.518 822.564 334.186 818.519 319.952C814.481 305.743 803.62 295.976 788.004 289.667C776.033 284.829 762.845 282.784 750.436 282.744C722.732 282.732 684.904 289.549 674.193 316.644ZM691.624 341.105C685.133 358.676 693.364 379.784 692.586 397.525C692.085 408.937 688.424 420.109 681.66 429.877C678.19 434.888 674.045 439.459 669.516 443.674C665.048 447.864 657.074 452.871 657.078 459.37C657.103 467.262 667.342 470.458 673.789 471.688C679.511 472.777 685.628 473.323 692.325 474.016C703.667 475.19 712.7 481.809 723.118 485.428C736.955 490.232 752.83 486.311 765.162 479.935C776.504 474.073 780.509 464.453 779.483 452.733C778.088 436.58 775.933 422.172 778.357 405.964C779.426 398.805 780.503 391.55 782.863 384.501C784.56 379.454 786.931 374.41 789.573 369.425C794.863 359.445 799.736 350.075 797.589 339.527C795.429 328.91 787.916 321.373 775.058 316.353C765.756 312.721 755.816 311.478 746.557 311.985C725.77 313.125 699.107 320.855 691.624 341.105ZM709.058 365.566C705.21 377.528 709.369 391.413 707.831 403.272C706.99 409.763 704.772 416.142 700.846 421.796C698.832 424.697 696.472 427.369 693.967 429.886C691.438 432.425 687.201 435.397 687.024 439.121C686.811 443.602 691.991 445.508 695.025 446.955C698.125 448.434 701.47 450.05 705.717 451.212C712.729 453.131 719.395 457.217 726.603 458.677C736.798 460.741 746.855 455.765 754.508 450.067C760.331 445.73 762.814 439.951 762.365 432.867C761.758 423.027 760.625 414.033 761.386 404.178C761.768 399.205 761.927 394.137 763.511 389.25C764.617 385.86 766.472 382.431 768.582 379.005C772.671 372.363 776.926 365.953 776.663 359.097C776.392 352.064 772.222 346.752 762.113 343.035C755.485 340.598 748.787 340.189 742.681 341.223C728.803 343.572 713.363 352.18 709.058 365.566ZM726.49 390.027C725.336 396.389 726.092 403.177 723.074 409.02C720.774 413.475 716.333 417.312 716.254 422.225C716.16 428.22 723.512 432.835 730.082 431.931C736.652 431.027 741.782 425.901 743.848 420.204C745.916 414.506 745.425 408.321 744.409 402.397C743.931 399.61 743.345 396.732 744.152 394.006C746.58 385.815 767.121 375.494 749.163 369.723C735.969 365.478 728.172 380.744 726.49 390.027ZM113.138 110.441C119.7 152.175 141.418 191.199 180.685 215.392C230.187 245.89 271.686 257.36 293.687 311.793C315.834 366.592 322.468 424.305 385.156 455.431C443.626 484.463 534.513 475.586 566.158 416.718C596.235 360.767 565.928 297.774 566.886 239.401C567.327 212.487 577.403 185.376 604.771 171.517C644.642 151.325 692.986 168.501 734.602 154.416C776.857 140.115 810.006 104.237 828.332 68.1594C847.16 31.0963 841.407 -8.94404 797.495 -27.4418C724.322 -58.2645 639.105 -64.0597 559.53 -67.2553C474.152 -70.6829 390.088 -62.8924 306.251 -48.7939C259.386 -40.9133 208.147 -37.1358 167.386 -12.6938C126.192 12.008 107.904 58.0809 112.017 101.558C112.293 104.483 112.667 107.448 113.138 110.441ZM194.024 -4.35944C156.831 18.2501 140.427 59.9774 144.035 99.4237C144.276 102.077 144.607 104.769 145.023 107.484C150.824 145.343 170.271 180.681 204.906 203.035C248.734 231.324 284.504 243.533 304.915 293.243C325.751 343.733 334.397 393.987 390.705 420.389C443.278 445.043 524.231 436.793 552.858 383.785C580.088 333.375 553.738 276.787 555.341 224.485C556.057 200.38 565.369 176.136 590.085 163.71C599.462 158.996 609.354 156.54 619.524 155.267C648.382 151.654 679.453 157.562 707.188 148.114C745.185 135.183 774.906 102.891 791.29 70.3781C808.105 37.0458 802.767 1.37175 763.755 -15.7751C697.369 -44.9558 618.422 -51.4231 545.121 -54.0488C468.611 -56.7905 393.287 -49.8955 318.246 -37.0717C276.29 -29.8978 230.477 -26.3351 194.024 -4.35944ZM220.664 3.97148C187.375 24.364 172.95 61.874 176.052 97.2899C176.262 99.6731 176.546 102.089 176.909 104.526C181.945 138.51 199.127 170.169 229.129 190.679C267.289 216.768 297.323 229.707 316.145 274.695C335.67 320.874 346.293 363.651 396.253 385.349C442.911 405.612 513.949 398.003 539.558 350.855C563.939 305.987 541.547 255.804 543.798 209.569C544.79 188.275 553.334 166.897 575.399 155.904C583.764 151.735 592.587 149.548 601.659 148.403C627.387 145.155 655.079 150.291 679.772 141.809C713.508 130.248 739.805 101.545 754.243 72.595C769.048 42.9934 764.125 11.6581 730.013 -4.11176C670.385 -31.6748 597.742 -38.7916 530.707 -40.8475C463.069 -42.9224 396.482 -36.9055 330.238 -25.3547C293.194 -18.8857 252.714 -15.6607 220.664 3.97148ZM247.304 12.3024C217.968 30.5456 205.473 63.7705 208.07 95.1561C208.245 97.2691 208.487 99.4081 208.792 101.568C213.068 131.677 227.987 159.67 253.35 178.323C285.853 202.228 310.019 215.923 327.375 256.145C345.462 298.06 358.136 333.292 401.804 350.306C442.51 366.166 503.67 359.21 526.26 317.922C547.793 278.596 529.359 234.818 532.255 194.651C533.522 176.169 541.3 157.655 560.713 148.096C568.068 144.471 575.819 142.556 583.791 141.537C606.39 138.654 630.705 143.02 652.356 135.505C681.834 125.314 704.703 100.198 717.199 74.812C729.992 48.9411 725.491 21.9046 696.271 7.55326C643.371 -18.4302 577.068 -26.1653 516.294 -27.6427C457.532 -29.0733 399.677 -23.9103 342.228 -13.6326C310.097 -7.87367 275 -4.91888 247.304 12.3024ZM273.944 20.635C248.561 36.7305 237.995 65.6688 240.09 93.024C240.23 94.8668 240.428 96.7305 240.68 98.6132C244.191 124.846 256.854 149.194 277.572 165.969C304.433 187.716 322.81 202.111 338.605 237.598C355.35 275.215 369.89 302.908 407.353 315.266C442.045 326.709 493.388 320.42 512.961 284.992C531.644 251.208 517.263 213.841 520.712 179.737C522.296 164.069 529.267 148.417 546.029 140.292C552.372 137.213 559.056 135.565 565.928 134.675C585.398 132.157 606.332 135.751 624.943 129.204C650.16 120.383 669.604 98.8539 680.156 77.0342C690.939 54.8923 686.868 32.1009 662.532 19.2217C616.318 -5.23583 556.401 -13.5425 501.886 -14.4362C452.003 -15.2537 402.877 -10.9133 354.225 -1.91039C327.001 3.13839 297.291 5.82991 273.944 20.635ZM300.582 28.966C279.153 42.9224 270.516 67.5653 272.106 90.8902C272.214 92.4611 272.365 94.0511 272.563 95.6549C275.313 118.013 285.719 138.751 301.793 153.613C323.023 173.242 335.608 188.293 349.834 219.049C365.244 252.368 381.485 272.492 412.902 280.225C441.471 287.257 483.107 281.63 499.661 252.061C515.497 223.818 505.092 192.863 509.169 164.821C511.037 151.966 517.233 139.178 531.343 132.486C536.676 129.952 542.289 128.573 548.062 127.811C564.403 125.658 581.958 128.481 597.529 122.899C618.488 115.448 634.504 97.5064 643.112 79.2511C651.882 60.84 648.263 42.2106 628.79 30.8868C589.215 7.87021 535.74 -0.940477 487.473 -1.23318C446.473 -1.48259 406.074 2.0784 366.217 9.81005C343.905 14.1504 319.586 16.5891 300.582 28.966ZM327.222 37.2969C309.75 49.1247 303.039 69.4619 304.126 88.7563C304.199 90.0571 304.307 91.3717 304.451 92.6984C306.438 111.182 314.579 128.367 326.016 141.257C341.62 158.84 348.424 174.471 361.066 200.5C375.156 229.514 392.79 242.075 418.454 245.182C440.692 247.875 472.829 242.835 486.363 219.127C499.35 196.426 492.92 171.885 497.626 149.901C499.776 139.862 505.2 129.935 516.657 124.678C520.979 122.69 525.521 121.579 530.196 120.946C543.41 119.156 557.583 121.209 570.113 116.595C586.813 110.514 599.359 96.1416 606.067 81.4681C612.785 66.7721 609.702 52.199 595.048 42.55C562.068 20.8325 515.086 11.6338 473.059 11.9681C440.951 12.2245 409.269 15.0701 378.207 21.527C360.806 25.1625 341.892 27.3673 327.222 37.2969ZM353.862 45.6295C340.355 55.3513 335.562 71.3601 336.144 86.6243C336.182 87.6548 336.246 88.694 336.334 89.7419C337.559 104.35 343.38 118.086 350.237 128.902C360.171 144.572 361.259 160.645 372.294 181.952C385.087 206.657 404.241 215.128 424.001 210.142C439.555 211.363 462.545 204.045 473.061 186.197C483.201 169.036 480.732 150.914 486.081 134.987C488.506 127.764 493.163 120.696 501.971 116.874C505.283 115.431 508.756 114.591 512.331 114.085C522.415 112.661 533.197 113.921 542.699 110.296C555.126 105.553 564.257 94.801 569.025 83.6902C573.729 72.725 571.233 62.0056 561.31 54.2203C534.945 33.5333 494.45 24.1562 458.65 25.1781C435.437 25.8397 412.468 28.0705 390.203 33.2544C377.71 36.1746 364.218 38.175 353.862 45.6295ZM380.502 53.9605C370.998 61.6367 368.085 73.2567 368.164 84.4904C368.17 85.2508 368.189 86.0146 368.221 86.7836C368.684 97.5168 371.99 107.943 374.459 116.545C378.463 130.492 374.129 146.801 383.524 163.402C395.057 183.781 415.924 185.244 429.552 175.1C438.975 172.348 452.266 165.254 459.763 153.265C467.053 141.646 468.514 129.943 474.538 120.069C477.226 115.665 481.131 111.456 487.284 109.066C489.585 108.169 491.988 107.597 494.465 107.219C501.421 106.161 508.825 106.651 515.284 103.989C523.453 100.622 529.162 93.4553 531.978 85.9055C534.678 78.6744 532.971 71.5299 527.566 65.8818C508.197 45.6451 473.816 36.5019 444.236 38.3777C429.919 39.2852 415.663 41.0588 402.194 44.9697C394.614 47.1866 386.588 49.0433 380.502 53.9605ZM398.68 104.19C395.923 116.288 387.047 132.929 394.754 144.854C405.101 160.865 427.607 155.364 435.101 140.058C443.583 122.733 454.032 104.445 476.6 100.354C480.426 99.6593 484.46 99.3995 487.87 97.6848C495.216 93.9904 496.907 84.6117 493.828 77.5486C484.566 56.3246 453.037 47.8811 429.827 51.5842C421.233 52.9542 412.564 56.1237 407.14 62.2931C396.691 74.1798 401.823 90.4087 398.68 104.19ZM95.8003 195.46C126.173 207.906 155.618 222.197 183.721 238.368C228.668 264.232 270.449 298.476 284.861 346.556C286.677 352.616 287.869 358.94 286.998 365.166C280.385 412.467 211.206 369.931 190.523 357.545C171.325 346.048 150.409 336.55 128.41 330.199C93.9014 320.238 56.5958 317.838 20.7091 314.997C-3.74788 313.061 -26.5421 310.968 -45.9917 295.824C-80.2253 269.167 -90.4512 201.835 -59.9885 169.194C-37.7223 145.339 7.35549 164.58 33.2025 172.781C54.407 179.508 75.3139 187.065 95.8003 195.46ZM-30.313 186.166C-11.9002 166.852 25.1827 182.265 46.9497 188.996C64.5062 194.471 81.8476 200.652 98.8166 207.533C124.149 217.785 148.664 229.552 171.596 242.92C209.541 265.036 240.81 293.733 250.585 331.766C251.819 336.571 252.507 341.55 251.689 346.457C245.428 384.05 190.264 349.94 173.313 339.895C157.716 330.616 140.742 322.942 122.899 317.793C94.9094 309.716 64.6713 307.757 35.5756 305.353C25.3056 304.505 15.358 303.606 5.96925 301.271C-3.39459 298.943 -12.1287 295.064 -20.0141 288.653C-47.1975 266.56 -55.2058 212.478 -30.313 186.166ZM-0.637466 203.134C13.8451 188.3 43.0272 199.899 60.6969 205.209C74.6208 209.394 88.3833 214.24 101.835 219.607C122.129 227.666 141.706 236.919 159.473 247.472C190.414 265.848 211.163 288.981 216.311 316.975C216.964 320.524 217.146 324.154 216.382 327.746C210.455 355.599 169.306 329.974 156.102 322.24C144.088 315.203 131.075 309.332 117.387 305.383C95.9155 299.189 72.7449 297.665 50.4384 295.704C42.144 294.975 34.08 294.187 26.5017 292.185C18.9427 290.188 12.0249 286.745 5.95966 281.479C-14.1869 263.991 -20.0659 223.035 -0.637466 203.134ZM29.0361 220.104C39.6365 209.78 60.8582 217.567 74.4422 221.422C84.7238 224.343 94.9171 227.826 104.851 231.681C120.108 237.546 134.736 244.3 147.35 252.023C171.279 266.674 181.503 284.194 182.037 302.186C182.104 304.473 181.789 306.741 181.075 309.037C175.467 327.062 148.358 309.995 138.891 304.588C130.472 299.78 121.405 295.722 111.876 292.975C96.9235 288.666 80.8205 287.561 65.3049 286.059C58.9843 285.447 52.8057 284.77 47.0381 283.102C41.2838 281.438 36.1862 278.447 31.9373 274.309C18.7872 261.504 15.1373 233.64 29.0361 220.104ZM58.7097 237.074C65.4451 231.267 78.6816 235.247 88.1856 237.637C94.8192 239.305 101.441 241.43 107.866 243.755C118.072 247.449 127.741 251.717 135.224 256.573C152.118 267.542 151.882 279.243 147.759 287.394C147.249 288.404 146.724 289.428 145.764 290.325C142.879 299.094 127.413 290.01 121.676 286.934C116.857 284.349 111.734 282.112 106.362 280.567C97.9277 278.142 88.896 277.418 80.1657 276.412C75.8208 275.911 71.5238 275.353 67.5686 274.018C63.6211 272.684 60.3398 270.199 57.9091 267.137C51.6268 259.223 50.3731 244.26 58.7097 237.074ZM88.3833 254.045C85.7721 255.044 83.6313 257.417 83.8848 259.965C84.0998 262.133 85.9603 263.931 88.103 264.934C90.2457 265.936 92.6707 266.3 95.0304 266.764C100.362 267.816 105.554 269.447 110.456 271.616C120.303 275.972 133.811 269.497 123.099 261.127C116.819 256.218 95.9597 251.149 88.3833 254.045ZM52.6118 366.928C121.048 374.647 180.046 409.774 235.703 445.034C263.236 462.477 291.467 479.187 321.45 493.035C342.887 502.935 365.583 510.322 388.245 517.558C399.746 521.23 411.711 523.916 422.202 529.802C444.735 542.443 440.728 563.167 414.91 567.35C374.732 573.86 333.203 559.918 292.497 565.536C250.393 571.347 210.186 587.437 167.194 588.736C143.677 589.446 122.39 580.126 102.136 570.445C81.8918 560.766 63.8092 553.322 40.6694 550.246C-2.09092 544.562 -46.4122 542.568 -56.7879 497.181C-63.4848 467.889 -57.2871 434.412 -43.4573 407.439C-25.6436 372.697 12.8966 362.449 52.6118 366.928ZM-22.5504 421.079C-8.22531 392.738 23.2973 384.114 56.3731 387.791C107.222 393.481 152.287 417.448 194.592 443.361C198.87 445.983 203.121 448.626 207.347 451.271C230.143 465.525 253.417 479.258 277.893 490.769C289.864 496.417 302.248 501.132 314.661 505.579C320.484 507.667 326.306 509.669 332.087 511.671C341.334 514.872 350.788 517.305 359.026 522.144C376.75 532.552 373.142 549.151 351.909 552.427C319.229 557.567 285.487 546.313 252.415 550.681C218.202 555.2 185.518 567.914 150.612 568.782C131.531 569.26 114.236 561.712 97.7645 553.871C81.3139 546.039 66.5952 539.991 47.8272 537.438C13.1405 532.716 -22.2375 530.834 -31.5879 494.474C-37.7357 470.572 -33.6884 443.203 -22.5504 421.079ZM-1.63971 434.72C9.19677 412.782 33.6979 405.782 60.1382 408.657C99.694 413.027 135.466 431.355 168.929 451.394C172.307 453.419 175.659 455.462 178.99 457.51C197.051 468.574 215.366 479.333 234.334 488.505C243.667 493.055 253.24 496.906 262.694 500.638C267.158 502.401 271.582 504.088 275.927 505.784C282.922 508.515 289.86 510.696 295.847 514.485C308.757 522.659 305.539 535.074 288.906 537.502C263.708 541.181 237.771 532.706 212.331 535.825C186.01 539.05 160.85 548.389 134.029 548.829C119.384 549.077 106.078 543.299 93.3926 537.301C80.7379 531.314 69.3811 526.663 54.9868 524.633C28.3737 520.876 1.88541 519.086 -6.38595 491.77C-12 473.226 -10.0858 451.995 -1.63971 434.72ZM19.2691 448.359C26.5497 432.799 44.0985 427.447 63.8995 429.519C92.1638 432.567 118.641 445.256 143.265 459.425C145.739 460.854 148.195 462.297 150.634 463.745C163.956 471.62 177.341 479.362 190.777 486.238C197.485 489.671 204.236 492.679 210.73 495.693C213.836 497.134 216.862 498.508 219.771 499.895C224.517 502.16 228.929 504.078 232.673 506.825C240.756 512.755 237.951 521.029 225.907 522.576C208.205 524.85 190.057 519.098 172.251 520.968C153.821 522.9 136.184 528.865 117.448 528.873C107.238 528.89 97.9238 524.883 89.0227 520.726C80.1619 516.583 72.1689 513.33 62.1485 511.823C43.6089 509.03 25.8816 507.305 18.8179 489.061C13.6896 475.82 13.4649 460.767 19.2691 448.359ZM40.1798 462.001C43.9622 452.842 54.5049 449.078 67.6646 450.384C84.6413 452.068 101.818 459.162 117.604 467.458C119.176 468.289 120.733 469.135 122.279 469.983C130.856 474.688 139.296 479.435 147.222 483.974C151.294 486.306 155.234 488.476 158.767 490.752C160.516 491.878 162.148 492.943 163.615 494.01C166.12 495.832 167.975 497.444 169.498 499.169C172.717 502.819 170.367 507 162.906 507.654C152.707 508.548 142.343 505.495 132.171 506.116C121.63 506.754 111.519 509.345 100.869 508.922C95.0938 508.707 89.7696 506.471 84.6528 504.158C79.5878 501.861 74.9568 500.004 69.3101 499.019C58.8422 497.188 49.4726 495.513 44.0198 486.358C39.2141 478.285 37.0579 469.559 40.1798 462.001ZM71.4278 471.248C64.9017 470.78 61.4553 472.91 61.0905 475.64C60.7238 478.371 63.4368 481.706 69.2236 483.649C74.3366 485.365 79.2652 487.295 84.288 488.966C89.3107 490.637 94.4236 492.049 99.9052 492.73C105.746 493.455 109 490.944 106.802 485.809C104.89 481.35 98.8857 477.914 91.9411 475.489C84.9945 473.066 77.1072 471.656 71.4278 471.248ZM496.155 514.749C478.564 523.024 475.342 543.723 468.488 559.032C465.857 564.906 464.214 571.766 467.796 577.622C474.803 589.067 492.875 589.017 505.378 588.295C519.053 587.505 533.042 588.08 546.336 584.538C553.985 582.499 564.77 576.136 565.34 568.089C566.033 558.265 553.482 557.181 546.127 554.023C528.732 546.555 533.255 527.363 521.121 516.512C514.199 510.318 504.227 510.95 496.155 514.749ZM514.149 549.86C513.736 548.369 512.728 547.115 511.033 546.489C504.635 544.129 501.266 552.17 500.615 556.448C500.258 558.788 500.682 561.52 502.829 562.872C505.221 564.379 508.729 563.383 510.649 561.404C513.379 558.591 515.174 553.575 514.149 549.86ZM434.717 619.931C386.329 615.338 338.721 610.568 290.834 623.854C259.142 632.646 227.629 650.141 215.082 679.637C206.507 699.797 207.761 724.361 216.132 744.407C230.047 777.729 265.475 790.454 302.778 789.094C418.892 784.863 531.863 742.966 627.057 684.376C634.032 680.082 640.923 675.676 647.725 671.16C660.445 662.719 674.2 653.427 679.219 639.243C682.187 630.852 681.302 621.033 675.277 614.101C669.256 607.175 659.052 604.077 649.294 603.992C625.663 603.787 604.692 616.161 581.952 619.905C539.699 626.865 496.374 625.392 453.825 621.689C447.441 621.135 441.072 620.534 434.717 619.931ZM422.052 639.371C384.09 636.145 346.575 632.556 308.938 642.766C283.968 649.531 259.263 662.982 248.719 685.657C241.438 701.315 241.499 720.706 248.218 736.625C256.452 756.183 274.545 766.388 295.296 769.858C302.256 771.022 309.539 771.442 316.909 771.197C380.957 769.076 443.866 753.068 501.802 728.124C526.483 717.446 550.581 705.028 573.193 691.193C578.709 687.817 584.145 684.341 589.488 680.764C599.497 674.065 610.187 666.659 614.168 655.505C616.52 648.911 615.894 641.245 611.416 635.67C606.874 630.013 599.197 627.336 591.755 626.977C574.583 626.151 558.699 634.385 541.336 637.684C540.428 637.858 539.518 638.019 538.606 638.162C505.16 643.433 470.842 642.995 437.169 640.56C432.117 640.196 427.079 639.79 422.052 639.371ZM409.388 658.811C381.846 657.01 354.43 654.544 327.041 661.676C308.792 666.415 290.876 675.825 282.355 691.676C276.359 702.832 275.236 717.05 280.303 728.841C286.349 742.995 300.038 749.999 315.227 752.36C320.335 753.152 325.657 753.448 331.039 753.299C377.887 752.015 424.038 741.499 466.71 724.175C484.698 716.873 502.689 708.085 519.327 698.006C523.384 695.549 527.364 693.003 531.251 690.365C538.548 685.408 546.173 679.888 549.116 671.765C550.852 666.971 550.489 661.449 547.555 657.237C544.495 652.845 539.338 650.589 534.219 649.962C522.294 648.499 510.574 653.84 497.27 656.099C496.6 656.213 495.93 656.324 495.258 656.421C470.621 660.005 445.309 660.597 420.513 659.431C416.794 659.258 413.084 659.054 409.388 658.811ZM396.724 678.253C379.607 677.829 362.283 676.533 345.145 680.589C333.615 683.302 322.435 688.666 315.992 697.698C311.243 704.354 308.974 713.399 312.388 721.061C316.245 729.811 325.532 733.616 335.159 734.865C338.413 735.284 341.775 735.456 345.168 735.404C374.815 734.957 404.168 729.861 431.616 720.23C442.892 716.272 454.794 711.145 465.462 704.825C468.059 703.287 470.584 701.67 473.011 699.971C477.598 696.756 482.158 693.122 484.061 688.03C485.18 685.035 485.096 681.637 483.69 678.809C482.125 675.66 479.464 673.836 476.678 672.951C469.974 670.823 462.453 673.317 453.204 674.517C452.772 674.572 452.342 674.633 451.91 674.685C436.08 676.582 419.777 678.204 403.855 678.308C401.47 678.319 399.093 678.312 396.724 678.253ZM349.628 703.72C345.982 705.773 342.71 709.746 344.473 713.281C346.141 716.627 351.028 717.233 355.092 717.37C368.924 717.833 382.863 718.29 396.526 716.284C405.535 714.961 419.622 710.709 419.833 700.378C419.983 693.034 416.212 692.857 409.142 692.93C400.894 693.015 392.252 696.628 384.06 697.695C372.703 699.174 359.775 698.01 349.628 703.72Z" stroke="#965E1C" stroke-miterlimit="10"/>
</g>
<defs>
<clipPath id="clip0_1_5">
<rect width="1440" height="866" fill="white"/>
</clipPath>
</defs>
</svg>
